<?xml version="1.0" standalone="no"?><!DOCTYPE svg PUBLIC "-//W3C//DTD SVG 1.1//EN" "http://www.w3.org/Graphics/SVG/1.1/DTD/svg11.dtd"><svg t="1702715018523" class="icon" viewBox="0 0 1024 1024" version="1.1" xmlns="http://www.w3.org/2000/svg" p-id="23796" xmlns:xlink="http://www.w3.org/1999/xlink" width="64" height="64"><path d="M746.666667 597.333333H682.666667v-170.666666h64A149.333333 149.333333 0 1 0 597.333333 277.333333V341.333333h-170.666666V277.333333A149.333333 149.333333 0 1 0 277.333333 426.666667H341.333333v170.666666H277.333333a149.333333 149.333333 0 1 0 149.333334 149.333334V682.666667h170.666666v64a149.333333 149.333333 0 1 0 149.333334-149.333334zM682.666667 277.333333A64 64 0 1 1 746.666667 341.333333H682.666667zM277.333333 341.333333A64 64 0 1 1 341.333333 277.333333V341.333333zM341.333333 746.666667A64 64 0 1 1 277.333333 682.666667H341.333333z m85.333334-149.333334v-170.666666h170.666666v170.666666z m320 213.333334a64 64 0 0 1-64-64V682.666667h64a64 64 0 0 1 0 128z" p-id="23797"></path></svg>