<?xml version="1.0" standalone="no"?><!DOCTYPE svg PUBLIC "-//W3C//DTD SVG 1.1//EN" "http://www.w3.org/Graphics/SVG/1.1/DTD/svg11.dtd"><svg t="1702714934749" class="icon" viewBox="0 0 1024 1024" version="1.1" xmlns="http://www.w3.org/2000/svg" p-id="22542" xmlns:xlink="http://www.w3.org/1999/xlink" width="64" height="64"><path d="M512 938.666667A426.666667 426.666667 0 1 0 85.333333 512a426.666667 426.666667 0 0 0 426.666667 426.666667z m0-768a341.333333 341.333333 0 1 1-341.333333 341.333333 341.333333 341.333333 0 0 1 341.333333-341.333333z m-30.72 587.946666a32.853333 32.853333 0 0 0 22.613333 9.386667h16.213334a32 32 0 0 0 22.613333-9.386667l133.546667-133.973333a21.333333 21.333333 0 0 0 0-30.293333l-29.866667-30.293334a21.333333 21.333333 0 0 0-30.293333 0L554.666667 625.92V277.333333a21.333333 21.333333 0 0 0-21.333334-21.333333h-42.666666a21.333333 21.333333 0 0 0-21.333334 21.333333v348.586667l-61.44-61.44a20.906667 20.906667 0 0 0-29.866666 0l-30.293334 30.293333a21.333333 21.333333 0 0 0 0 30.293334z" p-id="22543"></path></svg>