<?xml version="1.0" standalone="no"?><!DOCTYPE svg PUBLIC "-//W3C//DTD SVG 1.1//EN" "http://www.w3.org/Graphics/SVG/1.1/DTD/svg11.dtd"><svg t="1702715196181" class="icon" viewBox="0 0 1024 1024" version="1.1" xmlns="http://www.w3.org/2000/svg" p-id="24910" xmlns:xlink="http://www.w3.org/1999/xlink" width="64" height="64"><path d="M557.226667 816.64a21.333333 21.333333 0 0 1-30.293334 0l-8.533333-8.533333a20.906667 20.906667 0 0 1-6.4-15.36V640H192a21.333333 21.333333 0 0 1-21.333333-21.333333v-213.333334a21.333333 21.333333 0 0 1 21.333333-21.333333H512V231.253333a20.906667 20.906667 0 0 1 6.4-15.36l8.533333-8.533333a21.333333 21.333333 0 0 1 30.293334 0l289.706666 289.706667a20.48 20.48 0 0 1 0 29.866666z" p-id="24911"></path></svg>