<?xml version="1.0" standalone="no"?><!DOCTYPE svg PUBLIC "-//W3C//DTD SVG 1.1//EN" "http://www.w3.org/Graphics/SVG/1.1/DTD/svg11.dtd"><svg t="1702714800050" class="icon" viewBox="0 0 1024 1024" version="1.1" xmlns="http://www.w3.org/2000/svg" p-id="20174" xmlns:xlink="http://www.w3.org/1999/xlink" width="64" height="64"><path d="M810.666667 128H213.333333a85.333333 85.333333 0 0 0-85.333333 85.333333v597.333334a85.333333 85.333333 0 0 0 85.333333 85.333333h597.333334a85.333333 85.333333 0 0 0 85.333333-85.333333V213.333333a85.333333 85.333333 0 0 0-85.333333-85.333333z m0 682.666667H213.333333V213.333333h597.333334z m-384-155.733334a20.48 20.48 0 0 0 29.866666 0l239.786667-239.786666a21.333333 21.333333 0 0 0 0-30.293334l-22.613333-22.613333a21.333333 21.333333 0 0 0-29.866667 0l-202.24 202.24-64-63.573333a20.48 20.48 0 0 0-29.866667 0l-22.613333 22.613333a21.333333 21.333333 0 0 0 0 30.293333z" p-id="20175"></path></svg>