<?xml version="1.0" standalone="no"?><!DOCTYPE svg PUBLIC "-//W3C//DTD SVG 1.1//EN" "http://www.w3.org/Graphics/SVG/1.1/DTD/svg11.dtd"><svg t="1710987789998" class="icon" viewBox="0 0 1024 1024" version="1.1" xmlns="http://www.w3.org/2000/svg" p-id="5455" xmlns:xlink="http://www.w3.org/1999/xlink" width="200" height="200"><path d="M512 1024c-13.092571 0-20.297143-1.462857-24.868571-6.509714-2.779429-3.035429-280.758857-311.661714-354.816-461.165715C105.545143 502.857143 91.428571 444.708571 91.428571 387.986286 91.428571 174.006857 280.100571 0 512 0S932.571429 175.177143 932.571429 390.473143c0 65.024-13.019429 114.176-44.982858 169.581714-88.32 153.124571-347.721143 453.851429-350.317714 456.813714-3.108571 3.657143-8.630857 7.131429-24.612571 7.131429H512z m0-785.737143c-89.197714 0-161.755429 67.876571-161.755429 151.332572s72.557714 151.332571 161.755429 151.332571 161.755429-67.876571 161.755429-151.332571S601.234286 238.262857 512 238.262857z" p-id="5456"></path></svg>
