<?xml version="1.0" standalone="no"?><!DOCTYPE svg PUBLIC "-//W3C//DTD SVG 1.1//EN" "http://www.w3.org/Graphics/SVG/1.1/DTD/svg11.dtd"><svg t="1702715110694" class="icon" viewBox="0 0 1024 1024" version="1.1" xmlns="http://www.w3.org/2000/svg" p-id="24270" xmlns:xlink="http://www.w3.org/1999/xlink" width="64" height="64"><path d="M384 832v42.666667a21.333333 21.333333 0 0 1-21.333333 21.333333h-42.666667a21.333333 21.333333 0 0 1-21.333333-21.333333v-42.666667a21.333333 21.333333 0 0 1 21.333333-21.333333h42.666667a21.333333 21.333333 0 0 1 21.333333 21.333333z m149.333333-21.333333h-42.666666a21.333333 21.333333 0 0 0-21.333334 21.333333v42.666667a21.333333 21.333333 0 0 0 21.333334 21.333333h42.666666a21.333333 21.333333 0 0 0 21.333334-21.333333v-42.666667a21.333333 21.333333 0 0 0-21.333334-21.333333zM554.666667 149.333333a21.333333 21.333333 0 0 0-21.333334-21.333333h-42.666666a21.333333 21.333333 0 0 0-21.333334 21.333333v42.666667a21.333333 21.333333 0 0 0 21.333334 21.333333h42.666666a21.333333 21.333333 0 0 0 21.333334-21.333333zM362.666667 128h-42.666667a21.333333 21.333333 0 0 0-21.333333 21.333333v42.666667a21.333333 21.333333 0 0 0 21.333333 21.333333h42.666667a21.333333 21.333333 0 0 0 21.333333-21.333333v-42.666667a21.333333 21.333333 0 0 0-21.333333-21.333333zM200.96 128A85.333333 85.333333 0 0 0 128 200.96a9.813333 9.813333 0 0 0 2.56 8.533333 10.666667 10.666667 0 0 0 8.96 3.84H192a21.333333 21.333333 0 0 0 21.333333-21.333333V139.52a10.666667 10.666667 0 0 0-3.84-8.106667 9.813333 9.813333 0 0 0-8.533333-3.413333zM192 298.666667h-42.666667a21.333333 21.333333 0 0 0-21.333333 21.333333v42.666667a21.333333 21.333333 0 0 0 21.333333 21.333333h42.666667a21.333333 21.333333 0 0 0 21.333333-21.333333v-42.666667a21.333333 21.333333 0 0 0-21.333333-21.333333z m0 170.666666h-42.666667a21.333333 21.333333 0 0 0-21.333333 21.333334v42.666666a21.333333 21.333333 0 0 0 21.333333 21.333334h42.666667a21.333333 21.333333 0 0 0 21.333333-21.333334v-42.666666a21.333333 21.333333 0 0 0-21.333333-21.333334z m0 170.666667h-42.666667a21.333333 21.333333 0 0 0-21.333333 21.333333v42.666667a21.333333 21.333333 0 0 0 21.333333 21.333333h42.666667a21.333333 21.333333 0 0 0 21.333333-21.333333v-42.666667a21.333333 21.333333 0 0 0-21.333333-21.333333z m0 170.666667H139.52a10.666667 10.666667 0 0 0-8.106667 3.84 9.813333 9.813333 0 0 0-2.56 8.533333A85.333333 85.333333 0 0 0 200.96 896a9.813333 9.813333 0 0 0 8.533333-2.56 10.666667 10.666667 0 0 0 3.84-8.96V832a21.333333 21.333333 0 0 0-21.333333-21.333333z m692.48 0H832a21.333333 21.333333 0 0 0-21.333333 21.333333v52.48a10.666667 10.666667 0 0 0 3.84 8.106667 9.813333 9.813333 0 0 0 8.533333 2.56A85.333333 85.333333 0 0 0 896 823.04a9.813333 9.813333 0 0 0-2.56-8.533333 10.666667 10.666667 0 0 0-8.96-3.84zM810.666667 192a21.333333 21.333333 0 0 0 21.333333 21.333333h52.48a10.666667 10.666667 0 0 0 8.106667-3.84 9.813333 9.813333 0 0 0 2.56-8.533333A85.333333 85.333333 0 0 0 823.04 128a9.813333 9.813333 0 0 0-8.533333 2.56 10.666667 10.666667 0 0 0-3.84 8.106667zM874.666667 298.666667h-42.666667a21.333333 21.333333 0 0 0-21.333333 21.333333v42.666667a21.333333 21.333333 0 0 0 21.333333 21.333333h42.666667a21.333333 21.333333 0 0 0 21.333333-21.333333v-42.666667a21.333333 21.333333 0 0 0-21.333333-21.333333z m0 170.666666h-42.666667a21.333333 21.333333 0 0 0-21.333333 21.333334v42.666666a21.333333 21.333333 0 0 0 21.333333 21.333334h42.666667a21.333333 21.333333 0 0 0 21.333333-21.333334v-42.666666a21.333333 21.333333 0 0 0-21.333333-21.333334z m0 170.666667h-42.666667a21.333333 21.333333 0 0 0-21.333333 21.333333v42.666667a21.333333 21.333333 0 0 0 21.333333 21.333333h42.666667a21.333333 21.333333 0 0 0 21.333333-21.333333v-42.666667a21.333333 21.333333 0 0 0-21.333333-21.333333zM725.333333 149.333333a21.333333 21.333333 0 0 0-21.333333-21.333333h-42.666667a21.333333 21.333333 0 0 0-21.333333 21.333333v42.666667a21.333333 21.333333 0 0 0 21.333333 21.333333h42.666667a21.333333 21.333333 0 0 0 21.333333-21.333333zM704 810.666667h-42.666667a21.333333 21.333333 0 0 0-21.333333 21.333333v42.666667a21.333333 21.333333 0 0 0 21.333333 21.333333h42.666667a21.333333 21.333333 0 0 0 21.333333-21.333333v-42.666667a21.333333 21.333333 0 0 0-21.333333-21.333333z" p-id="24271"></path></svg>