<?xml version="1.0" standalone="no"?><!DOCTYPE svg PUBLIC "-//W3C//DTD SVG 1.1//EN" "http://www.w3.org/Graphics/SVG/1.1/DTD/svg11.dtd"><svg t="1702714922441" class="icon" viewBox="0 0 1024 1024" version="1.1" xmlns="http://www.w3.org/2000/svg" p-id="22388" xmlns:xlink="http://www.w3.org/1999/xlink" width="64" height="64"><path d="M512 85.333333a426.666667 426.666667 0 1 0 426.666667 426.666667A426.666667 426.666667 0 0 0 512 85.333333z m128 330.666667a21.333333 21.333333 0 0 1-21.333333 21.333333h-32a21.333333 21.333333 0 0 1-21.333334-21.333333v-42.666667h-106.666666v37.546667a9.386667 9.386667 0 0 0 3.84 8.106667l146.346666 120.746666a85.333333 85.333333 0 0 1 31.146667 65.706667V640a85.333333 85.333333 0 0 1-85.333333 85.333333v21.333334a21.333333 21.333333 0 0 1-21.333334 21.333333h-42.666666a21.333333 21.333333 0 0 1-21.333334-21.333333V725.333333a85.333333 85.333333 0 0 1-85.333333-85.333333v-32a21.333333 21.333333 0 0 1 21.333333-21.333333h32a21.333333 21.333333 0 0 1 21.333334 21.333333v42.666667h106.666666v-37.546667a9.386667 9.386667 0 0 0-3.84-8.106667l-146.346666-120.746666A85.333333 85.333333 0 0 1 384 418.56V384a85.333333 85.333333 0 0 1 85.333333-85.333333v-21.333334a21.333333 21.333333 0 0 1 21.333334-21.333333h42.666666a21.333333 21.333333 0 0 1 21.333334 21.333333V298.666667a85.333333 85.333333 0 0 1 85.333333 85.333333z" p-id="22389"></path></svg>