<?xml version="1.0" standalone="no"?><!DOCTYPE svg PUBLIC "-//W3C//DTD SVG 1.1//EN" "http://www.w3.org/Graphics/SVG/1.1/DTD/svg11.dtd"><svg t="1702714871966" class="icon" viewBox="0 0 1024 1024" version="1.1" xmlns="http://www.w3.org/2000/svg" p-id="21922" xmlns:xlink="http://www.w3.org/1999/xlink" width="64" height="64"><path d="M902.4 331.52l-320-224a122.88 122.88 0 0 0-140.8 0l-320 224A85.333333 85.333333 0 0 0 85.333333 401.493333V853.333333a85.333333 85.333333 0 0 0 85.333334 85.333334h682.666666a85.333333 85.333333 0 0 0 85.333334-85.333334V401.493333a85.333333 85.333333 0 0 0-36.266667-69.973333z m-369.066667 293.973333a38.826667 38.826667 0 0 1-21.333333 6.4 36.266667 36.266667 0 0 1-21.333333-6.826666L170.666667 401.493333l320-224a36.693333 36.693333 0 0 1 42.666666 0L853.333333 401.493333z" p-id="21923"></path></svg>