<?xml version="1.0" standalone="no"?><!DOCTYPE svg PUBLIC "-//W3C//DTD SVG 1.1//EN" "http://www.w3.org/Graphics/SVG/1.1/DTD/svg11.dtd"><svg t="1702714853587" class="icon" viewBox="0 0 1024 1024" version="1.1" xmlns="http://www.w3.org/2000/svg" p-id="21764" xmlns:xlink="http://www.w3.org/1999/xlink" width="64" height="64"><path d="M768 436.906667v53.76a21.333333 21.333333 0 0 1-21.333333 21.333333h-42.666667a21.333333 21.333333 0 0 1-21.333333-21.333333v-11.52a115.626667 115.626667 0 0 0-64-100.693334c-7.68-4.266667-14.506667-9.386667-21.333334-14.08v384A161.28 161.28 0 0 1 426.666667 896a161.28 161.28 0 0 1-170.666667-149.333333 161.28 161.28 0 0 1 170.666667-149.333334 183.04 183.04 0 0 1 85.333333 20.906667V149.333333a21.333333 21.333333 0 0 1 21.333333-21.333333h42.666667a21.333333 21.333333 0 0 1 21.333333 21.333333v7.253334a113.92 113.92 0 0 0 61.013334 103.253333A197.12 197.12 0 0 1 768 436.906667z" p-id="21765"></path></svg>