<?xml version="1.0" standalone="no"?><!DOCTYPE svg PUBLIC "-//W3C//DTD SVG 1.1//EN" "http://www.w3.org/Graphics/SVG/1.1/DTD/svg11.dtd"><svg t="1702714826424" class="icon" viewBox="0 0 1024 1024" version="1.1" xmlns="http://www.w3.org/2000/svg" p-id="21126" xmlns:xlink="http://www.w3.org/1999/xlink" width="64" height="64"><path d="M93.013333 420.693333A20.906667 20.906667 0 0 1 85.333333 397.653333l3.413334-10.666666a20.906667 20.906667 0 0 1 18.773333-14.933334l272.64-21.76 104.533333-251.306666a21.76 21.76 0 0 1 21.76-13.653334h11.093334a20.906667 20.906667 0 0 1 20.053333 13.653334l104.96 251.306666 272.64 21.76a20.906667 20.906667 0 0 1 18.773333 14.933334l3.413334 10.666666a20.906667 20.906667 0 0 1-6.4 23.04L725.333333 597.333333l63.146667 264.96a21.76 21.76 0 0 1-8.106667 22.613334l-12.373333 6.826666a21.333333 21.333333 0 0 1-23.893333 0L512 750.933333l-233.386667 142.08a21.333333 21.333333 0 0 1-23.893333 0l-9.386667-6.4a21.76 21.76 0 0 1-8.106666-22.613333L298.666667 597.333333z" p-id="21127"></path></svg>