<?xml version="1.0" standalone="no"?><!DOCTYPE svg PUBLIC "-//W3C//DTD SVG 1.1//EN" "http://www.w3.org/Graphics/SVG/1.1/DTD/svg11.dtd"><svg t="1702714978823" class="icon" viewBox="0 0 1024 1024" version="1.1" xmlns="http://www.w3.org/2000/svg" p-id="23004" xmlns:xlink="http://www.w3.org/1999/xlink" width="64" height="64"><path d="M977.066667 837.546667L546.56 101.12a32.426667 32.426667 0 0 0-27.733333-15.786667h-12.8a32.426667 32.426667 0 0 0-27.733334 15.786667L46.933333 837.546667a33.706667 33.706667 0 0 0 0 32.426666l5.973334 9.813334a31.146667 31.146667 0 0 0 27.733333 16.213333h862.72a31.146667 31.146667 0 0 0 27.733333-16.213333l5.973334-9.813334a33.706667 33.706667 0 0 0 0-32.426666zM161.706667 810.666667L512 213.333333l349.866667 597.333334z" p-id="23005"></path></svg>