<?xml version="1.0" standalone="no"?><!DOCTYPE svg PUBLIC "-//W3C//DTD SVG 1.1//EN" "http://www.w3.org/Graphics/SVG/1.1/DTD/svg11.dtd"><svg t="1702714911627" class="icon" viewBox="0 0 1024 1024" version="1.1" xmlns="http://www.w3.org/2000/svg" p-id="22234" xmlns:xlink="http://www.w3.org/1999/xlink" width="64" height="64"><path d="M401.493333 512l180.906667-180.48a21.76 21.76 0 0 0 0-30.293333L378.88 97.706667A42.666667 42.666667 0 0 0 348.586667 85.333333H320a21.333333 21.333333 0 0 0-21.333333 21.333334v302.506666L151.893333 262.4a21.333333 21.333333 0 0 0-30.293333 0l-29.866667 30.293333a20.48 20.48 0 0 0 0 29.866667L280.746667 512l-189.013334 189.44a20.48 20.48 0 0 0 0 29.866667l29.866667 30.293333a21.333333 21.333333 0 0 0 30.293333 0L298.666667 614.826667v302.506666a21.333333 21.333333 0 0 0 21.333333 21.333334h28.586667a42.666667 42.666667 0 0 0 30.293333-12.373334l203.52-203.52a21.76 21.76 0 0 0 0-30.293333zM384 223.573333l92.586667 92.586667L384 408.746667z m0 576.853334v-185.173334l92.586667 92.586667zM576 469.333333h-42.666667a21.333333 21.333333 0 0 0-21.333333 21.333334v42.666666a21.333333 21.333333 0 0 0 21.333333 21.333334h42.666667a21.333333 21.333333 0 0 0 21.333333-21.333334v-42.666666a21.333333 21.333333 0 0 0-21.333333-21.333334z m170.666667 0h-42.666667a21.333333 21.333333 0 0 0-21.333333 21.333334v42.666666a21.333333 21.333333 0 0 0 21.333333 21.333334h42.666667a21.333333 21.333333 0 0 0 21.333333-21.333334v-42.666666a21.333333 21.333333 0 0 0-21.333333-21.333334z m170.666666 0h-42.666666a21.333333 21.333333 0 0 0-21.333334 21.333334v42.666666a21.333333 21.333333 0 0 0 21.333334 21.333334h42.666666a21.333333 21.333333 0 0 0 21.333334-21.333334v-42.666666a21.333333 21.333333 0 0 0-21.333334-21.333334z" p-id="22235"></path></svg>