<?xml version="1.0" standalone="no"?><!DOCTYPE svg PUBLIC "-//W3C//DTD SVG 1.1//EN" "http://www.w3.org/Graphics/SVG/1.1/DTD/svg11.dtd"><svg t="1702714778160" class="icon" viewBox="0 0 1024 1024" version="1.1" xmlns="http://www.w3.org/2000/svg" p-id="19536" xmlns:xlink="http://www.w3.org/1999/xlink" width="64" height="64"><path d="M512 85.333333a426.666667 426.666667 0 1 0 426.666667 426.666667A426.666667 426.666667 0 0 0 512 85.333333z m185.6 329.813334l-239.786667 239.786666a20.48 20.48 0 0 1-29.866666 0L326.4 554.666667a21.333333 21.333333 0 0 1 0-30.293334l22.613333-22.613333a20.48 20.48 0 0 1 29.866667 0l64 63.573333 202.24-202.24a21.333333 21.333333 0 0 1 29.866667 0l22.613333 22.613334a21.333333 21.333333 0 0 1 0 29.44z" p-id="19537"></path></svg>