<svg viewBox="0 0 1024 1024" version="1.1" xmlns="http://www.w3.org/2000/svg" p-id="578"><path d="M849.92 51.2H174.08c-67.8656 0-122.88 55.0144-122.88 122.88v675.84c0 67.8656 55.0144 122.88 122.88 122.88h675.84c67.8656 0 122.88-55.0144 122.88-122.88V174.08c0-67.8656-55.0144-122.88-122.88-122.88z m-75.0848 402.176c-4.9664 0.4608-10.00448 0.768-15.104 0.768-57.4208 0-107.87328-29.53216-137.23648-74.16832v252.55936c0 103.0912-83.57888 186.67008-186.66496 186.67008s-186.66496-83.57888-186.66496-186.67008c0-103.08608 83.57888-186.66496 186.66496-186.66496 3.89632 0 7.7056 0.34816 11.53536 0.5888v91.98592c-3.82976-0.4608-7.59296-1.16224-11.53536-1.16224-52.62848 0-95.27296 42.64448-95.27296 95.27296 0 52.62336 42.64448 95.26272 95.27296 95.26272 52.61824 0 99.0976-41.45664 99.0976-94.08512l0.9216-428.93824h87.91552c8.27392 78.61248 71.73632 140.65152 151.07072 146.34496V453.376z" p-id="579"></path></svg>
