<svg viewBox="0 0 1024 1024" version="1.1" xmlns="http://www.w3.org/2000/svg" p-id="1014"><path d="M208.979592 1024h606.040816c115.461224 0 208.979592-93.518367 208.979592-208.979592V208.979592C1024 93.518367 930.481633 0 815.020408 0H208.979592C93.518367 0 0 93.518367 0 208.979592v606.040816c0 115.461224 93.518367 208.979592 208.979592 208.979592z" fill="#F5F4F4" p-id="1015"></path><path d="M512 73.142857C269.583673 73.142857 73.142857 269.583673 73.142857 512s196.440816 438.857143 438.857143 438.857143 438.857143-196.440816 438.857143-438.857143S754.416327 73.142857 512 73.142857z" fill="#E94737" p-id="1016"></path><path d="M127.373061 723.487347l8.777143 15.25551C212.950204 865.906939 352.548571 950.857143 512 950.857143c3.970612 0 7.941224 0 12.016327-0.10449l-7.000817-12.225306L710.530612 867.265306V616.489796H331.023673L138.03102 282.226939A436.809143 436.809143 0 0 0 73.142857 512c0 76.69551 19.644082 148.793469 54.230204 211.487347z" fill="#30A04C" p-id="1017"></path><path d="M898.612245 304.23249v-1.253878h-0.626939c-3.761633-7.000816-7.836735-14.001633-12.016326-20.793469l-12.016327 20.793469H512v313.469388h180.976327l-192.992654 334.367347c155.689796 4.075102 308.662857-75.023673 392.045715-219.428571 78.889796-136.568163 76.068571-297.795918 6.582857-427.154286z" fill="#FBBC1C" p-id="1018"></path><path d="M892.060735 292.571429c-79.830204-138.34449-223.712653-216.711837-372.506123-219.428572h-15.777959c-71.88898 1.253878-144.509388 20.27102-211.173877 58.827755a436.349388 436.349388 0 0 0-154.749388 150.465306l11.911836 20.58449h748.146939c-1.880816-3.448163-3.866122-7.000816-5.851428-10.448979z" fill="#E94737" p-id="1019"></path><path d="M512 303.020408c-115.461224 0-208.979592 93.518367-208.979592 208.979592s93.518367 208.979592 208.979592 208.979592 208.979592-93.518367 208.979592-208.979592-93.518367-208.979592-208.979592-208.979592z" fill="#FEFEFD" p-id="1020"></path><path d="M512 344.816327c-92.36898 0-167.183673 74.814694-167.183673 167.183673s74.814694 167.183673 167.183673 167.183673 167.183673-74.814694 167.183673-167.183673-74.814694-167.183673-167.183673-167.183673z" fill="#3884F0" p-id="1021"></path></svg>
