<svg viewBox="0 0 1024 1024" version="1.1" xmlns="http://www.w3.org/2000/svg" p-id="581"><path d="M208.979592 1024h606.040816c115.461224 0 208.979592-93.518367 208.979592-208.979592V208.979592C1024 93.518367 930.481633 0 815.020408 0H208.979592C93.518367 0 0 93.518367 0 208.979592v606.040816c0 115.461224 93.518367 208.979592 208.979592 208.979592z" fill="#16AEEE" p-id="582"></path><path d="M193.306122 668.734694h637.387756c26.017959 0 47.020408-21.002449 47.020408-47.020408S856.711837 574.693878 830.693878 574.693878h-637.387756c-26.017959 0-47.020408 21.002449-47.020408 47.020408s21.002449 47.020408 47.020408 47.020408z" fill="#FFFFFF" p-id="583"></path><path d="M810.255673 759.902041l-318.693877-551.998694a46.957714 46.957714 0 0 0-64.229878-17.209469 46.957714 46.957714 0 0 0-17.209469 64.229877l318.693878 551.998694a46.957714 46.957714 0 0 0 64.229877 17.209469 46.957714 46.957714 0 0 0 17.209469-64.229877z" fill="#FFFFFF" p-id="584"></path><path d="M190.693878 759.902041l318.693877-551.998694a46.957714 46.957714 0 0 1 64.229878-17.209469 46.957714 46.957714 0 0 1 17.209469 64.229877l-318.693878 551.998694a46.957714 46.957714 0 0 1-64.229877 17.209469 46.957714 46.957714 0 0 1-17.209469-64.229877z" fill="#FFFFFF" p-id="585"></path></svg>
