<svg viewBox="0 0 1024 1024" version="1.1" xmlns="http://www.w3.org/2000/svg" p-id="889"><path d="M208.979592 1024h606.040816c115.461224 0 208.979592-93.518367 208.979592-208.979592V208.979592C1024 93.518367 930.481633 0 815.020408 0H208.979592C93.518367 0 0 93.518367 0 208.979592v606.040816c0 115.461224 93.518367 208.979592 208.979592 208.979592z" fill="#0796FA" p-id="890"></path><path d="M539.376327 859.846531c-20.793469 17.136327-52.662857 2.821224-52.767347-23.719184V574.380408L334.785306 698.409796c-13.583673 11.075918-33.750204 9.299592-45.139592-3.866123a30.636408 30.636408 0 0 1 3.970613-43.990204l173.139591-141.374693L293.616327 367.804082a30.521469 30.521469 0 0 1-3.970613-43.885715c11.389388-13.270204 31.555918-14.942041 45.139592-3.866122l151.823674 123.924898V187.872653c0.10449-26.540408 31.973878-40.85551 52.767347-23.719184L730.488163 321.828571a30.657306 30.657306 0 0 1 0 47.647347L557.662041 512l172.826122 142.524082a30.657306 30.657306 0 0 1 0 47.647347z m9.92653-606.249796v184.00653l111.595102-91.95102z m111.595102 424.75102l-111.595102-91.95102v184.00653z" fill="#FFFFFF" p-id="891"></path></svg>
