<svg viewBox="0 0 1024 1024" version="1.1" xmlns="http://www.w3.org/2000/svg" p-id="2292"><path d="M208.979592 1024h606.040816c115.461224 0 208.979592-93.518367 208.979592-208.979592V208.979592C1024 93.518367 930.481633 0 815.020408 0H208.979592C93.518367 0 0 93.518367 0 208.979592v606.040816c0 115.461224 93.518367 208.979592 208.979592 208.979592z" fill="#73D48A" p-id="2293"></path><path d="M585.560816 246.282449a627.220898 627.220898 0 0 0-203.441632 135.836735 627.220898 627.220898 0 0 0-135.836735 203.441632A625.977469 625.977469 0 0 0 198.530612 825.469388h100.310204c0-69.172245 13.583673-137.613061 40.124082-201.560817a526.492735 526.492735 0 0 1 114.102857-170.840816 526.492735 526.492735 0 0 1 170.840816-114.102857A525.552327 525.552327 0 0 1 825.469388 298.840816V198.530612c-82.337959 0-163.84 16.195918-239.908572 47.751837z" fill="#FAFAF9" p-id="2294"></path><path d="M657.554286 420.04898c-53.289796 22.047347-101.668571 54.334694-142.419592 95.085714-40.75102 40.75102-73.038367 89.129796-95.085714 142.419592A438.491429 438.491429 0 0 0 386.612245 825.469388h92.16c0-45.557551 8.986122-90.592653 26.435918-132.702041a345.861224 345.861224 0 0 1 75.128164-112.43102 345.861224 345.861224 0 0 1 112.43102-75.128164c42.109388-17.449796 87.14449-26.435918 132.702041-26.435918V386.612245c-57.678367 0-114.729796 11.389388-167.915102 33.436735z" fill="#F1F3F2" p-id="2295"></path><path d="M729.547755 593.81551c-30.51102 12.538776-58.096327 31.033469-81.397551 54.334694-23.301224 23.301224-41.795918 50.886531-54.334694 81.397551A249.814204 249.814204 0 0 0 574.693878 825.469388h87.771428c0-21.420408 4.179592-42.631837 12.434286-62.380408 8.150204-19.748571 20.166531-37.720816 35.317551-52.871837 15.15102-15.15102 33.123265-27.167347 52.871837-35.317551 19.748571-8.254694 40.96-12.434286 62.380408-12.434286V574.693878c-32.914286 0-65.515102 6.478367-95.921633 19.121632zM767.582041 801.436735c-3.134694 7.627755-4.806531 15.777959-4.806531 24.032653h62.693878v-62.693878c-8.254694 0-16.404898 1.671837-24.032653 4.806531-7.523265 3.134694-14.524082 7.732245-20.271021 13.583673-5.851429 5.746939-10.44898 12.747755-13.583673 20.271021z" fill="#E8E8E8" p-id="2296"></path></svg>
