<svg viewBox="0 0 1034 1024" version="1.1" xmlns="http://www.w3.org/2000/svg" p-id="1241"><path d="M988.49441 228.881655v629.180495c0 68.294361-55.881736 124.171943-124.180252 124.171943H189.616552c-68.298515 0-124.184406-55.869274-124.184406-124.171943V228.881655" fill="#F0F0F0" p-id="1242"></path><path d="M967.171116 228.881655v629.180495c0 56.708414-46.136081 102.856957-102.856958 102.856958H189.616552c-56.716722 0-102.861112-46.140235-102.861112-102.856958V228.881655H44.113006v629.180495c0 80.225103 65.274288 145.491083 145.503546 145.491083h674.70176c80.229258 0 145.499391-65.270134 145.499392-145.491083V228.881655H967.171116z" fill="#6E6E96" p-id="1243"></path><path d="M420.280341 804.361347v-366.965874l-54.593947 54.598101-99.34254 99.34254 45.22632 45.222166 99.34254-99.34254-54.593947-22.611083v289.75669zM651.147684 509.337185c28.921249 0 61.149209 46.36456 61.149208 112.893403s-32.227959 112.893404-61.149208 112.893404c-28.925404 0-61.153363-46.36456-61.153364-112.893404s32.227959-112.893404 61.153364-112.893403z m-125.114938 112.893403c0 99.172219 54.955359 176.850824 125.114938 176.850824 70.155424 0 125.110783-77.678604 125.110783-176.850824s-54.955359-176.859132-125.110783-176.859132c-70.159578 0-125.114937 77.686913-125.114938 176.859132z" fill="#6E6E96" p-id="1244"></path><path d="M67.529996 241.011797V138.960746c0-56.130986 58.523781-102.055205 130.054231-102.055204h660.855951c71.534604 0 130.054231 45.924219 130.054232 102.055204v102.051051H67.529996z" fill="#F08686" p-id="1245"></path><path d="M836.090807 44.83583H213.324333c-67.405371 0-122.555976 43.27802-122.555976 96.172916v52.23854c0-52.890742 55.150604-96.168763 122.555976-96.168763h622.766474c67.417834 0 122.555976 43.27802 122.555976 96.168763V141.008746c0-52.890742-55.14645-96.172917-122.555976-96.172916z" fill="#FFFFFF" opacity=".15" p-id="1246"></path><path d="M88.85329 241.011797V138.960746c0-43.764057 49.79174-80.736065 108.730937-80.736064h660.855951c58.939197 0 108.730937 36.972008 108.730938 80.736064v102.051051l21.323294-21.31914H67.529996l21.323294 21.31914z m920.964414 0V138.960746c0-68.028495-67.912178-123.374345-151.373371-123.374344H197.584227c-83.465347 0-151.373371 55.34585-151.373371 123.374344v123.370191H1009.817704v-21.31914z" fill="#6E6E96" p-id="1247"></path><path d="M855.029615 916.170515H199.378824c-66.37514 0-120.678296-54.294848-120.678297-120.669988v74.592065c0 66.370986 54.303156 120.669988 120.678297 120.669988h655.654945c66.366832 0 120.674142-54.299002 120.674142-120.669988v-74.592065c-0.004154 66.37514-54.311465 120.669988-120.678296 120.669988zM86.75544 177.311935h880.41983v131.624503H86.75544z" fill="#6E6E96" opacity=".15" p-id="1248"></path></svg>
