<svg viewBox="0 0 1024 1024" version="1.1" xmlns="http://www.w3.org/2000/svg" p-id="705"><path d="M298.72341 1005.316659l-68.293244-19.464212 222.831521-781.815234 68.293243 19.464212z" fill="#FFD6A8" p-id="706"></path><path d="M298.735739 1021.751916c-1.512422 0-3.028954-0.209602-4.508496-0.628805l-68.293244-19.464212a16.439368 16.439368 0 0 1-11.302065-20.314949l222.83152-781.815233a16.439368 16.439368 0 0 1 20.319059-11.302066l68.293244 19.464212a16.439368 16.439368 0 0 1 11.302065 20.314949L314.546301 1009.821045a16.427038 16.427038 0 0 1-15.810562 11.930871zM250.761554 974.546272l36.67212 10.451328 213.814527-750.19411-36.672119-10.451328L250.761554 974.546272z" fill="#6E6E96" p-id="707"></path><path d="M439.13616 223.489095l68.289134-19.464211 222.83152 781.819343-68.293243 19.464212z" fill="#FFD6A8" p-id="708"></path><path d="M661.98001 1021.731367a16.439368 16.439368 0 0 1-15.806452-11.930871L423.337928 227.981153a16.439368 16.439368 0 0 1 11.306175-20.314949l68.289134-19.464212a16.443478 16.443478 0 0 1 20.314948 11.302066l222.831521 781.815233a16.439368 16.439368 0 0 1-11.302065 20.314949l-68.289134 19.464212a16.250315 16.250315 0 0 1-4.508497 0.632915z m-202.516572-786.952536l213.818637 750.19822 36.67212-10.451328-213.822747-750.19822-36.66801 10.451328z" fill="#6E6E96" p-id="709"></path><path d="M442.970643 16.439368h71.001629v931.249087h-71.001629z" fill="#FFD6A8" p-id="710"></path><path d="M513.972272 964.127823h-71.001629a16.439368 16.439368 0 0 1-16.439368-16.439368V16.439368a16.439368 16.439368 0 0 1 16.439368-16.439368h71.001629a16.439368 16.439368 0 0 1 16.439368 16.439368v931.249087a16.439368 16.439368 0 0 1-16.439368 16.439368z m-54.562262-32.878736h38.122894V32.878736h-38.122894v898.370351z" fill="#6E6E96" p-id="711"></path><path d="M477.480985 470.609782m-388.556787 0a388.556787 388.556787 0 1 0 777.113575 0 388.556787 388.556787 0 1 0-777.113575 0Z" fill="#FF8AA2" p-id="712"></path><path d="M121.556343 486.169643c0-206.157892 167.122613-373.272285 373.280505-373.272285 142.784129 0 271.229019 84.633975 334.006855 202.417936-60.546192-129.349056-191.810434-218.988818-344.075968-218.988818-209.745784 0-379.778165 170.028271-379.778165 379.786384 0 152.212106 89.598664 283.464019 218.906622 344.03487-117.742862-62.794275-202.339849-191.226836-202.339849-333.978087z" fill="#FFABBB" p-id="713"></path><path d="M477.480985 470.609782m-320.440266 0a320.440267 320.440267 0 1 0 640.880533 0 320.440267 320.440267 0 1 0-640.880533 0Z" fill="#F0F0FF" p-id="714"></path><path d="M174.9473 478.685621c0-171.425617 138.966086-310.391703 310.391703-310.391703 118.729224 0 225.539906 70.381043 277.743119 168.318577-50.362003-107.558674-159.507076-182.094767-286.118977-182.094767-174.413473 0-315.796145 141.378563-315.796145 315.792035 0 126.574912 74.503215 235.707655 182.0249 286.086098-97.900545-52.223762-168.2446-159.005675-168.2446-277.71024z" fill="#FFFFFF" p-id="715"></path><path d="M477.480985 470.609782m-241.625827 0a241.625828 241.625828 0 1 0 483.251655 0 241.625828 241.625828 0 1 0-483.251655 0Z" fill="#FF8AA2" p-id="716"></path><path d="M493.414843 717.94007c-124.889877 0-226.135833-101.254176-226.135834-226.127614 0-124.898097 101.245956-226.139943 226.135834-226.139943 124.902207 0 226.144053 101.241847 226.144053 226.139943 0 57.681632-21.634208 110.291719-57.192561 150.235273 39.585998-43.030045 63.776527-100.436318 63.776528-163.501842 0-133.454788-108.187479-241.634047-241.625828-241.634048-133.446568 0-241.629938 108.17926-241.629938 241.634048 0 133.442458 108.18337 241.621718 241.629938 241.621717a241.144976 241.144976 0 0 0 84.305188-15.148877 225.934451 225.934451 0 0 1-75.40738 12.921343z" fill="#FFABBB" p-id="717"></path><path d="M477.480985 470.605672m-160.661941 0a160.661941 160.661941 0 1 0 321.323883 0 160.661941 160.661941 0 1 0-321.323883 0Z" fill="#F0F0FF" p-id="718"></path><path d="M482.153876 329.358624c-85.55458 0-154.908163 69.353583-154.908163 154.908163 0 85.54225 69.353583 154.895833 154.908163 154.895833s154.908163-69.353583 154.908162-154.895833c0.00822-85.55869-69.353583-154.908163-154.908162-154.908163z m6.123664 307.075061c-80.667978 0-146.059673-65.404025-146.059673-146.055563 0-80.667978 65.391695-146.063783 146.059673-146.063783 80.659758 0 146.067893 65.399915 146.067893 146.063783 0 80.667978-65.408135 146.055563-146.067893 146.055563z" fill="#FFFFFF" p-id="719"></path><path d="M477.480985 470.609782m-58.947463 0a58.947463 58.947463 0 1 0 117.894926 0 58.947463 58.947463 0 1 0-117.894926 0Z" fill="#FF8AA2" p-id="720"></path><path d="M477.480985 875.605937c-223.316482 0-404.996155-181.679673-404.996155-404.996155s181.679673-404.996155 404.996155-404.996155 404.996155 181.679673 404.996155 404.996155-181.679673 404.996155-404.996155 404.996155z m0-777.113575c-205.187969 0-372.117419 166.92945-372.117419 372.11742s166.92945 372.117419 372.117419 372.117419 372.117419-166.92945 372.11742-372.117419-166.92945-372.117419-372.11742-372.11742z" fill="#6E6E96" p-id="721"></path><path d="M477.480985 807.493526c-185.756636 0-336.879635-151.122998-336.879634-336.883744 0-185.756636 151.122998-336.879635 336.879634-336.879635 185.752527 0 336.879635 151.122998 336.879635 336.879635 0 185.756636-151.127108 336.883744-336.879635 336.883744z m0-640.884643c-167.628124 0-304.000899 136.372776-304.000899 304.000899 0 167.628124 136.376885 304.005009 304.000899 304.005009 167.624014 0 304.000899-136.376885 304.000899-304.005009s-136.376885-304.000899-304.000899-304.000899z" fill="#6E6E96" p-id="722"></path><path d="M477.480985 728.674977c-142.299168 0-258.065196-115.766028-258.065195-258.065195s115.766028-258.065196 258.065195-258.065196 258.065196 115.766028 258.065196 258.065196-115.766028 258.065196-258.065196 258.065195z m0-483.251655c-124.166545 0-225.18646 101.019915-225.18646 225.18646 0 124.170655 101.019915 225.18646 225.18646 225.18646 124.170655 0 225.18646-101.015805 225.18646-225.18646s-101.015805-225.18646-225.18646-225.18646z" fill="#6E6E96" p-id="723"></path><path d="M477.480985 647.706981c-97.653955 0-177.101309-79.447355-177.101309-177.101309s79.447355-177.101309 177.101309-177.101309 177.101309 79.447355 177.10131 177.101309-79.447355 177.101309-177.10131 177.101309z m0-321.323883c-79.525442 0-144.222574 64.697132-144.222573 144.222574s64.697132 144.222574 144.222573 144.222574 144.222574-64.697132 144.222574-144.222574-64.697132-144.222574-144.222574-144.222574z" fill="#6E6E96" p-id="724"></path><path d="M477.480985 545.996613c-41.571051 0-75.386831-33.819889-75.38683-75.386831s33.819889-75.386831 75.38683-75.386831 75.386831 33.819889 75.386831 75.386831-33.819889 75.386831-75.386831 75.386831z m0-117.894927c-23.438429 0-42.508095 19.069667-42.508095 42.508096s19.069667 42.508095 42.508095 42.508095 42.508095-19.069667 42.508096-42.508095-19.069667-42.508095-42.508096-42.508096z" fill="#6E6E96" p-id="725"></path><path d="M473.371143 69.398791a388.507469 388.507469 0 0 0-112.07128 16.435258 374.283306 374.283306 0 0 1 102.092584-14.220053c206.626414 0 374.143572 167.513048 374.143572 374.147681 0 206.634633-167.517158 374.151791-374.143572 374.151792-206.634633 0-374.147681-167.517158-374.147681-374.151792a372.37223 372.37223 0 0 1 41.357339-170.911887C101.389349 329.407942 84.806137 391.741915 84.806137 457.951469c0 214.587178 173.9655 388.565007 388.556787 388.565006 214.587178 0 388.552677-173.977829 388.552677-388.569116 0.00822-214.591287-173.96139-388.548568-388.544458-388.548568z" fill="#6E6E96" opacity=".2" p-id="726"></path><path d="M478.65229 148.525578c-31.999229 0-62.880582 4.730428-92.019361 13.492611a307.251784 307.251784 0 0 1 83.824337-11.671951c169.666605 0 307.223015 137.54408 307.223015 307.218905 0 169.666605-137.56463 307.218905-307.223015 307.218906-169.678935 0-307.218905-137.5523-307.218906-307.218906a305.837998 305.837998 0 0 1 33.951405-140.346992c-23.980928 44.801387-37.596834 95.989469-37.596835 150.358567 0 176.205364 142.845777 319.05936 319.055251 319.05936s319.05525-142.858106 319.05525-319.05936c0.00411-176.205364-142.845777-319.05114-319.051141-319.05114z" fill="#6E6E96" opacity=".2" p-id="727"></path><path d="M480.641454 213.514509a243.208117 243.208117 0 0 0-70.615304 6.678493 234.080158 234.080158 0 0 1 64.306696-5.614044c129.22576 6.645614 228.605848 116.789379 221.964344 246.019249-6.641505 129.22576-116.789379 228.614068-246.019248 221.968454-129.22576-6.637395-228.605848-116.797598-221.960235-246.019249a233.110235 233.110235 0 0 1 31.358095-105.561291 242.192986 242.192986 0 0 0-34.526783 113.045313c-6.896315 134.198669 96.310036 248.604339 230.508706 255.496544 134.219218 6.912754 248.604339-96.310036 255.496544-230.508705 6.900425-134.215108-96.305926-248.604339-230.512815-255.504764z" fill="#6E6E96" opacity=".2" p-id="728"></path><path d="M478.294734 308.525835c-1.2946 0-2.59331 0.065757-3.883801 0.098636 80.195346 2.063141 144.596569 67.680877 144.59657 148.381734 0 81.983127-66.489023 148.47215-148.468041 148.47215-82.007786 0-148.48037-66.489023-148.48037-148.47215A147.884443 147.884443 0 0 1 334.396838 397.738174a159.942719 159.942719 0 0 0-16.772265 71.466042c0 88.735597 71.934564 160.670161 160.666051 160.670161 88.735597 0 160.674271-71.934564 160.674271-160.670161 0-88.739707-71.934564-160.678381-160.670161-160.678381z" fill="#6E6E96" opacity=".2" p-id="729"></path><path d="M475.52881 403.101518c21.864359 4.911261 38.200981 24.404241 38.200981 47.756363 0 27.04276-21.921897 48.956437-48.968766 48.956438-27.04687 0-48.964657-21.913677-48.964657-48.956438v-0.082196a59.387216 59.387216 0 0 0-1.093218 11.17877c0 32.562278 26.389295 58.939243 58.947463 58.939243 32.549948 0 58.951573-26.376966 58.951573-58.939243 0.00822-31.925252-25.390604-57.858355-57.073376-58.852937z" fill="#6E6E96" opacity=".2" p-id="730"></path><path d="M272.794417 837.28988l43.847904 21.720515-41.764214 139.520914 23.874072 6.810009 51.151093-161.866126-68.741217-35.467936zM685.332132 998.658715l-40.543591-148.525579 39.622986-24.94674-6.353815-17.17914-62.087382 24.387803 45.923373 172.946259zM443.024071 859.010395h70.948201v26.594787h-70.948201z" fill="#6E6E96" opacity=".15" p-id="731"></path><path d="M810.480929 821.619053a16.39005 16.39005 0 0 1-11.622633-4.816735l-331.980703-331.976593a16.439368 16.439368 0 0 1 23.249376-23.249376l331.976593 331.980703a16.439368 16.439368 0 0 1-11.622633 28.062001z" fill="#6E6E96" p-id="732"></path><path d="M776.566513 771.532409v77.343116l103.662544 103.650214v-77.347226h83.791458l-103.662544-103.646104z" fill="#7FEAFF" p-id="733"></path><path d="M880.233167 968.965106a16.418819 16.418819 0 0 1-11.626743-4.816734l-103.662544-103.650214a16.443478 16.443478 0 0 1-4.816734-11.622633v-77.343116a16.439368 16.439368 0 0 1 16.439367-16.439368h83.791458c4.360542 0 8.540252 1.730243 11.622633 4.816735l103.662544 103.650214a16.439368 16.439368 0 1 1-11.622633 28.062001h-67.35209v60.903748a16.439368 16.439368 0 0 1-16.435258 16.439367z m-87.227286-126.899589l70.783808 70.775588v-37.658482a16.439368 16.439368 0 0 1 16.439368-16.439368h44.098604l-70.779698-70.771478h-60.542082v54.09374z" fill="#6E6E96" p-id="734"></path><path d="M678.074151 824.450734a16.422928 16.422928 0 0 1-14.133746-8.026521l-199.553376-334.804165a16.439368 16.439368 0 1 1 28.242834-16.833912l199.549266 334.804164a16.431148 16.431148 0 0 1-5.704461 22.534264 16.357171 16.357171 0 0 1-8.400517 2.32617z" fill="#6E6E96" opacity=".18" p-id="735"></path><path d="M567.186506 964.127823H385.379427a16.439368 16.439368 0 0 1 0-32.878736h181.807079a16.439368 16.439368 0 0 1 0 32.878736z" fill="#6E6E96" opacity=".2" p-id="736"></path><path d="M776.566513 771.532409l103.662544 103.646104v77.347226l-103.662544-103.650214z" fill="#6E6E96" opacity=".15" p-id="737"></path><path d="M948.555179 1024h-62.075052a16.439368 16.439368 0 0 1 0-32.878736h62.075052a16.439368 16.439368 0 0 1 0 32.878736z" fill="#6E6E96" opacity=".2" p-id="738"></path><path d="M83.827994 1024H48.351838a16.439368 16.439368 0 0 1 0-32.878736h35.476156a16.439368 16.439368 0 0 1 0 32.878736z" fill="#6E6E96" opacity=".2" p-id="739"></path></svg>
