<svg viewBox="0 0 1024 1024" version="1.1" xmlns="http://www.w3.org/2000/svg" p-id="995"><path d="M504.749768 40.568209C589.354429 165.358191 747.89189 90.485983 747.89189 90.485983l120.195339 120.6272s-129.402435 91.514435-64.703443 195.50386S1057.206673 814.262539 504.754221 997.286957C-47.720493 814.262539 151.367368 510.610922 216.070812 406.617043S151.367368 211.113183 151.367368 211.113183l120.195339-120.6272c-0.004452 0 148.564591 74.872209 233.187061-49.917774z" fill="#FF8C8C" p-id="996"></path><path d="M872.539403 202.208835L752.344064 81.581635S593.811055 156.453843 509.201942 31.668313C424.579473 156.453843 276.010429 81.581635 276.014881 81.581635L155.819542 202.208835s27.447652 19.424835 50.741426 50.527722l113.980105-119.954922c-0.004452 0 141.672626 74.872209 222.363826-49.913322 80.682296 124.789983 231.860313 49.913322 231.860313 49.913322l79.920974 84.114922c10.413635-9.4208 17.853217-14.687722 17.853217-14.687722z m-61.101635 201.300591c1.98567 14.68327 7.052243 29.9008 16.241531 45.40327 14.879165 25.074643 36.650296 61.760557 53.746643 105.565495-16.375096-62.726678-48.484174-116.295235-69.988174-150.968765zM208.595612 255.492452c26.290087 36.294122 45.959791 87.525287 11.927374 142.220244-49.793113 80.027826-179.146574 278.296487 15.662748 448.832556-115.77433-157.34873-68.554574-297.641183 31.4368-397.632556 77.979826-77.979826-41.405217-179.293496-59.026922-193.420244z" fill="#FFFFFF" opacity=".24" p-id="997"></path><path d="M486.322221 53.061009c75.384209 111.188591 210.276174 86.265322 271.07506 57.553252a22.26087 22.26087 0 0 1-25.279443-4.416557l120.195339 120.6272a22.265322 22.265322 0 0 1 2.925078-33.889947c-50.692452 35.844452-130.698017 129.090783-70.7584 225.440278 36.142748 58.096417 111.228661 178.781496 67.098713 300.753252-38.137322 105.400765-157.184 191.879791-353.827617 257.019548a22.216348 22.216348 0 0 1 14.002087 0c-193.896626-64.235965-311.166887-149.263583-348.547339-252.745461-43.448765-120.271026 29.620313-237.447791 68.87513-300.397078l2.889461-4.639166c59.948522-96.353948-20.065948-189.595826-70.749496-225.440278a22.274226 22.274226 0 0 1 2.920627 33.889948l120.195339-120.6272a22.26087 22.26087 0 1 0-37.589705-20.11047c-3.637426 18.08473 12.292452 24.767443 20.849531 28.355896 79.395617 33.311165 187.445426 34.682435 252.585182-61.382122a22.269774 22.269774 0 0 1-36.859547 0.008905zM255.793107 74.769809L135.597768 195.401461a22.247513 22.247513 0 0 0-6.402226 17.621704A22.238609 22.238609 0 0 0 138.513942 229.286957c4.54567 3.23673 111.402296 80.7936 58.652939 165.567443l-2.8672 4.599096c-40.171965 64.422957-123.76153 198.477913-72.975582 339.082017 42.255583 116.963061 168.906574 211.135443 376.4224 279.877009a22.216348 22.216348 0 0 0 14.002087 0c210.258365-69.658713 338.681322-165.255791 381.693774-284.137739 51.476035-142.291478-31.312139-275.371409-71.110122-339.326887-52.79833-84.871791 54.062748-162.424209 58.630678-165.687653a22.305391 22.305391 0 0 0 2.880557-33.867686L763.652586 74.765357a22.26087 22.26087 0 0 0-25.279444-4.416557c-5.743304 2.684661-142.482922 64.98393-215.209182-42.277843a22.251965 22.251965 0 0 0-36.850644 0C413.90316 134.874157 286.913803 73.264974 281.544481 70.584765a22.194087 22.194087 0 0 1 11.686957 24.994505 22.26087 22.26087 0 1 1-37.438331-20.809461z" fill="#6E6E96" p-id="998"></path><path d="M507.554638 607.904278m-257.901078 0a257.901078 257.901078 0 1 0 515.802156 0 257.901078 257.901078 0 1 0-515.802156 0Z" fill="#F7E865" p-id="999"></path><path d="M636.676586 582.624835c18.049113-14.064417 14.086678-25.573287-8.793044-25.573287h-26.966817c-22.884174 0-49.436939-16.9984-59.000209-37.781148l-19.509426-42.344626c-9.56327-20.778296-24.856487-20.613565-33.965635 0.36953l-18.062469 41.601113c-9.1136 20.983096-35.283478 38.15513-58.1632 38.155131h-26.966818c-22.879722 0-27.670261 12.506157-10.6496 27.790469l29.651479 26.632905c17.016209 15.29767 26.637357 46.01767 21.383791 68.287443l-7.257044 30.733357c-5.26247 22.265322 5.818991 29.811757 24.611618 16.780243l27.834991-19.304626c18.80153-13.04487 50.149287-13.939757 69.658713-1.990122l32.995061 20.190609c19.513878 11.945183 30.773426 3.597357 25.021217-18.547756l-10.115339-38.947618c-5.752209-22.149565 4.309704-51.765426 22.354366-65.834295l25.938365-20.217322z" fill="#F29C6A" p-id="1000"></path><path d="M650.362568 600.184209c22.674922-17.679583 21.214609-34.428661 18.311792-42.852174-2.889461-8.419061-12.038678-22.536904-40.790818-22.536905h-26.966817c-14.313739 0-32.794713-11.833878-38.778435-24.834226l-19.513878-42.349078c-11.91847-25.893843-30.274783-28.502817-37.607513-28.422678-7.337183 0.080139-25.635617 3.089809-36.997565 29.237426l-18.06247 41.601113c-5.627548 12.955826-23.618783 24.762991-37.749983 24.762991h-26.966817c-28.249043 0-37.861287 14.064417-41.075757 22.461218-3.218922 8.387896-5.471722 25.274991 15.54254 44.156661l29.651478 26.628452c11.054748 9.928348 18.009043 32.149148 14.594226 46.609808l-7.257044 30.737809c-6.49127 27.487722 4.995339 40.07847 12.417114 45.140591s23.342748 11.143791 46.55193-4.955269l27.830539-19.295722c11.646887-8.085148 33.262191-8.704 45.349844-1.304487l32.999513 20.190609c24.767443 15.1552 41.02233 6.736139 46.854678 2.404174 5.841252-4.327513 18.632348-17.425809 11.330782-45.536835l-10.115339-38.947617c-3.548383-13.654817 3.361391-34.010157 14.491826-42.687444l25.956174-20.208417z m-53.301426-14.896974c-24.865391 19.389217-38.13287 58.479304-30.212452 88.9856l10.115339 38.943165c0.9216 3.54393 0.783583 5.097739 0.783583 5.106643 0.089043-0.899339 1.099687-4.029217 4.474435-6.531339 3.374748-2.506574 6.664904-2.555548 7.546434-2.381913-0.017809 0-1.544904-0.316104-4.661426-2.230539l-32.995061-20.190609c-26.833252-16.419617-68.118261-15.244243-93.96313 2.689114l-27.826087 19.295721c-3.063096 2.132591-4.590191 2.56-4.608 2.56 0.979478-0.271583 4.643617-0.436313 8.494748 2.19047 3.855583 2.626783 5.035409 6.095026 5.142261 7.110122 0-0.022261-0.155826-1.589426 0.694539-5.2224l7.261496-30.737809c7.176904-30.403896-4.928557-69.07993-28.173357-89.960626l-29.651478-26.628452c-2.778157-2.502122-3.548383-3.877843-3.557287-3.895653 0.480835 0.890435 1.500383 4.421009-0.169183 8.793044-1.669565 4.358678-4.786087 6.313183-5.747756 6.651548 0.013357-0.008904 1.513739-0.520904 5.244661-0.520905h26.966817c31.512487 0 66.025739-22.643757 78.580869-51.547269l18.06247-41.605565c1.415791-3.258991 2.493217-4.345322 2.502122-4.354226-2.502122 2.479861-9.211548 2.551096-11.771548 0.129113 0.013357 0.008904 1.108591 1.072974 2.595617 4.296347l19.513879 42.353531c13.089391 28.444939 47.896487 50.732522 79.21753 50.732522h26.966817c3.926817 0 5.48953 0.503096 5.50734 0.503095-1.49593-0.489739-5.128904-3.098713-6.816279-8.018365-1.691826-4.9152-0.431861-9.207096 0.445218-10.520487-0.008904 0.017809-0.934957 1.380174-4.024766 3.793252l-25.938365 20.21287z" fill="#6E6E96" p-id="1001"></path><path d="M673.54949 102.46233c-52.085983 5.654261-118.8864-3.744278-164.352-70.798469-9.238261 13.628104-19.237843 24.869843-29.731617 34.094748 62.450643 74.698574 158.960417 49.365704 194.083617 36.703721z m134.282017 295.250366c-64.698991-103.989426 64.703443-195.503861 64.703444-195.503861L752.344064 81.581635s-25.916104 12.234574-62.379409 18.570017l104.474713 104.853148s-115.756522 81.85767-57.878261 174.881391c57.873809 93.023722 253.760557 382.450643-240.417391 546.170435C247.173699 843.584557 142.155821 715.909565 133.109003 615.285983 122.869003 739.096487 192.705803 883.529461 509.206394 988.382609c552.452452-183.024417 363.328557-486.676035 298.625113-590.669913zM260.841873 97.097461s89.555478 45.113878 163.514991-0.480835c-73.634504 22.59033-148.333078-15.034991-148.333078-15.034991L155.819542 202.208835l0.169183 0.120208 104.853148-105.231582z" fill="#6E6E96" opacity=".15" p-id="1002"></path><path d="M554.538429 365.839583c94.012104 28.329183 162.513252 115.54727 162.513252 218.806539 0 126.205774-102.315409 228.521183-228.521182 228.521182-103.254817 0-190.472904-68.501148-218.806539-162.513252 20.800557 114.042435 120.58713 200.530365 240.648904 200.530365 135.141287 0 244.69593-109.554643 244.69593-244.69593 0-120.057322-86.483478-219.843896-200.530365-240.648904z" fill="#6E6E96" opacity=".15" p-id="1003"></path><path d="M285.368899 646.473461c0-132.799443 107.649113-240.453009 240.448556-240.453009 132.786087 0 240.444104 107.653565 240.444105 240.453009 0 5.071026-0.209252 10.084174-0.516453 15.075061 2.511026-14.380522 3.900104-29.148383 3.900105-44.245705 0-141.031513-114.331826-255.363339-255.358887-255.363339-141.035965 0-255.358887 114.331826-255.358887 255.363339 0 83.754296 40.318887 158.087791 102.6048 204.653079-46.850226-43.876174-76.163339-106.242226-76.163339-175.482435z" fill="#F7F7F7" opacity=".63" p-id="1004"></path><path d="M507.554638 372.26407c129.936696 0 235.644661 105.707965 235.644661 235.640208s-105.707965 235.640209-235.644661 235.640209c-129.932243 0-235.635757-105.707965-235.635757-235.640209s105.707965-235.640209 235.635757-235.640208z m-280.157496 235.640208c0 154.48153 125.680417 280.161948 280.157496 280.161948 154.48153 0 280.1664-125.680417 280.1664-280.161948s-125.680417-280.161948-280.1664-280.161948c-154.48153 0-280.157496 125.680417-280.157496 280.161948z" fill="#6E6E96" p-id="1005"></path></svg>
