<svg viewBox="0 0 1026 1024" version="1.1" xmlns="http://www.w3.org/2000/svg" p-id="1062"><path d="M352.326303 94.78208a185.335128 105.018382 18.252 1 0-65.782876 199.469434 185.335128 105.018382 18.252 1 0 65.782876-199.469434Z" fill="#F78383" p-id="1063"></path><path d="M163.198165 142.988872c12.473639-37.820607 90.533806-58.804298 182.608081-28.440397 58.233908 19.205907 105.930173 53.987209 124.469931 90.775285 7.5483 14.984188 9.36772 28.681876 5.395806 40.718354-3.96775 12.036479-13.576948 21.970425-28.556972 29.518725-36.783912 18.539758-95.813036 18.127578-154.046945-1.078328-58.238072-19.205907-105.930173-53.987209-124.469931-90.771121-7.552464-14.984188-9.36772-28.686039-5.39997-40.722518z m116.825872 171.029579c69.37525 22.878053 138.842095 22.399258 185.826413-1.282337 24.847356-12.519437 41.913259-31.075848 49.361637-53.658298 7.452541-22.578286 4.762965-47.646304-7.756472-72.493659-23.681595-46.984318-79.234254-88.697732-148.609503-111.575785-109.781347-36.205195-213.088558-12.069786-235.18805 54.940634-7.448378 22.582449-4.767128 47.65463 7.760635 72.501986 23.677432 46.984318 79.234254 88.693569 148.60534 111.567459z" fill="#6E6E96" p-id="1064"></path><path d="M717.770884 294.292583a105.035035 185.360108 71.743 1 0-65.810716-199.495324 105.035035 185.360108 71.743 1 0 65.810716 199.495324Z" fill="#F78383" p-id="1065"></path><path d="M841.092153 143.03467c12.477802 37.828933-37.787299 101.142228-129.861575 131.518619-58.238072 19.214234-117.275522 19.63474-154.063598 1.094982-14.988351-7.5483-24.59755-17.482246-28.565299-29.518725-3.96775-12.040642-2.160821-25.742493 5.391643-40.730845 18.539758-36.788076 66.231859-71.577705 124.469931-90.791938 58.238072-19.214234 117.271359-19.630577 154.063598-1.094982 14.975861 7.552464 24.593386 17.48641 28.5653 29.522889zM645.419226 75.06666c-69.37525 22.88638-124.932072 64.608121-148.609504 111.596602-12.519437 24.847356-15.200686 49.919537-7.748145 72.50615 7.448378 22.582449 24.518445 41.138861 49.369964 53.658298 46.988481 23.681595 116.463653 24.152063 185.843067 1.265683 109.78551-36.213522 178.465467-117.079841 156.361811-184.098589-7.448378-22.582449-24.522608-41.138861-49.361637-53.658298-47.005135-23.681595-116.480307-24.156226-185.855556-1.269846z" fill="#6E6E96" p-id="1066"></path><path d="M22.89887 274.719826h960.361958v263.466073H22.89887z" fill="#FFF7AB" p-id="1067"></path><path d="M913.952194 538.185899v450.424938H92.195014V538.185899" fill="#F78383" p-id="1068"></path><path d="M92.195014 538.185899h821.75718v67.988827H92.195014z" fill="#6E6E96" opacity=".15" p-id="1069"></path><path d="M904.82179 538.185899v450.433265a20.817155 20.817155 0 0 1 20.817154-20.817155H103.885928a20.817155 20.817155 0 0 1 20.817155 20.817155V538.185899a20.817155 20.817155 0 0 0-20.817155-20.817155 20.817155 20.817155 0 0 0-20.817154 20.817155v450.433265a20.817155 20.817155 0 0 0 20.817154 20.817155h821.753016a20.817155 20.817155 0 0 0 20.817155-20.817155V538.185899c0-11.50356-9.317758-20.817155-20.817155-20.817155s-20.817155 9.313595-20.817154 20.817155z" fill="#6E6E96" p-id="1070"></path><path d="M456.341174 274.719826V988.610837h104.085773V274.719826z" fill="#F0F0FF" p-id="1071"></path><path d="M124.703083 909.609735h780.118707v58.192274H124.703083zM581.244101 606.174726h50.564869v303.435009h-50.564869zM55.402775 473.765132h939.540641v79.750519H55.402775z" fill="#6E6E96" opacity=".15" p-id="1072"></path><path d="M55.402775 295.536981h918.723486v47.846148H55.402775z" fill="#FFFFFF" opacity=".43" p-id="1073"></path><path d="M34.585621 295.536981h960.357795a20.817155 20.817155 0 0 1-20.817155-20.817155v263.466073c0-11.50356 9.317758-20.817155 20.817155-20.817155H34.585621a20.817155 20.817155 0 0 1 20.817154 20.817155V274.719826a20.817155 20.817155 0 0 1-20.817154 20.817155z m0 263.466072h960.357795a20.817155 20.817155 0 0 0 20.817154-20.817154V274.719826a20.817155 20.817155 0 0 0-20.817154-20.817154H34.585621a20.817155 20.817155 0 0 0-20.817155 20.817154v263.466073c0 11.486906 9.321922 20.817155 20.817155 20.817154z" fill="#6E6E96" p-id="1074"></path><path d="M435.524019 274.719826V1009.427992h145.720082V253.902672h-145.720082v20.817154z m104.085773 0V988.610837l20.817155-20.817155h-104.085773l20.817154 20.817155V274.719826l-20.817154 20.817155h104.085773l-20.817155-20.817155z" fill="#6E6E96" p-id="1075"></path><path d="M509.412428 273.724766c17.782013-41.738395 67.139487-83.168696 132.051538-105.647059 86.58271-29.980866 170.088644-15.612866 194.731992 31.392269 7.594098-17.815321 9.471805-35.684766 4.292497-52.163626-17.303219-55.086355-106.425621-73.746852-199.032815-41.680107-92.611358 32.070908-153.655582 102.728495-136.344036 157.810685 1.136617 3.588877 2.581327 7.011218 4.300824 10.287838zM482.853902 269.561335c-17.140845-41.738395-64.699717-83.17286-127.242776-105.647059-83.426829-29.980866-163.893458-15.612866-187.649996 31.392269-7.315148-17.811158-9.126241-35.684766-4.134286-52.163626 16.678704-55.086355 102.545304-73.746852 191.784282-41.680107 89.243142 32.070908 148.059931 102.728495 131.377063 157.810686-1.082492 3.588877-2.481405 7.011218-4.134287 10.287837z" fill="#6E6E96" opacity=".15" p-id="1076"></path></svg>
