<svg viewBox="0 0 1112 1024" version="1.1" xmlns="http://www.w3.org/2000/svg" p-id="7028"><path d="M165.758293 605.914453a82.20672 82.20672 0 0 1-4.027733 26.0096c-4.096 12.6976-16.042667 13.038933-18.0224 29.696-3.140267 26.897067-0.750933 52.340053 7.168 76.322134-75.298133 15.906133-103.6288 92.5696-70.4512 158.446933 21.845333 43.4176 55.5008 54.408533 102.058667 54.340267 233.745067-0.273067 467.449173-0.24576 701.098666 0.068266 54.4768 1.911467 110.933333 6.9632 143.7696-47.5136 28.672-47.650133 12.219733-109.636267-28.672-144.384a9.325227 9.325227 0 0 0-6.212266-2.184533l-66.901334 1.2288-774.690133-1.2288c-2.409813 0-4.164267-1.092267-5.256533-3.2768l-11.127467-22.1184 1.4336-32.631467a4.9152 4.9152 0 0 1 4.9152-4.7104l722.193067 0.4096 77.687466 1.4336a2.983253 2.983253 0 0 0 2.751147-1.706666 2.819413 2.819413 0 0 0-0.498347-3.140267 2433.47456 2433.47456 0 0 1-142.404266-175.445333c-66.7648-90.385067-107.3152-191.214933-100.898134-301.738667 1.59744-26.897067 4.328107-53.6576 8.192-80.2816a2.935467 2.935467 0 0 0-3.822933-3.208533l-34.679467 11.332266c-8.6016 1.911467-16.110933 4.89472-22.528 8.942934-153.873067 58.9824-293.410133 166.024533-380.791466 306.7904-11.741867 18.937173-84.411733 155.490987-95.55968 174.557866-8.649387 14.793387-19.84512 17.046187-33.5872 6.7584l-12.6976-9.489066c-13.70112-10.24-16.520533-22.9376-8.465067-38.0928 119.739733-223.778133 386.717013-487.424 631.794347-543.5392 9.058987-2.08896 17.8176-6.18496 26.282666-12.288 66.218667-47.786667 160.904533-49.629867 213.8112 20.206933 46.216533 61.0304 39.1168 149.640533-17.954133 201.386667-53.8624 48.9472-143.837867 54.0672-199.0656 5.597866a3.140267 3.140267 0 0 0-5.188267 2.798934c16.315733 104.448 69.632 190.737067 134.075734 272.452266a2584.029867 2584.029867 0 0 0 125.474133 147.456c33.5872 36.63872 54.388053 63.214933 62.395733 79.735467 51.746133 106.632533-6.212267 251.904-138.581333 252.177067-252.627627 0.505173-505.26208 0.750933-757.896533 0.750933-38.045013-0.04096-65.96608-3.31776-83.7632-9.8304-109.021867-39.867733-129.4336-181.4528-74.3424-269.789867 24.261973-38.864213 41.233067-70.765227 50.926933-95.709866 3.781973-9.64608 13.154987-21.93408 28.125867-36.864 15.066453-15.018667 33.041067-14.923093 53.930666 0.273066z m634.197334-489.745066c-48.674133 90.5216 73.181867 157.696 132.164266 82.5344 28.0576-35.703467 25.053867-94.8224-16.5888-120.2176-41.984-25.3952-96.0512-6.826667-115.575466 37.6832z" fill="#343333" p-id="7029"></path><path d="M915.531093 78.486187c-17.749333 34.36544-41.61536 60.443307-71.611733 78.2336-21.230933 12.561067-29.764267-2.184533-35.4304-20.616534a102.331733 102.331733 0 0 0-8.533333-19.933866c19.524267-44.509867 73.591467-63.0784 115.575466-37.6832z" fill="#FEFEFE" p-id="7030"></path><path d="M915.531093 78.486187c41.642667 25.3952 44.6464 84.514133 16.5888 120.2176-58.9824 75.1616-180.8384 7.9872-132.164266-82.5344 3.508907 6.239573 6.3488 12.88192 8.533333 19.933866 5.666133 18.432 14.199467 33.1776 35.4304 20.616534 29.996373-17.790293 53.8624-43.86816 71.611733-78.2336z" fill="#CBCCCE" p-id="7031"></path><path d="M863.034027 694.388053c-8.553813-8.64256-15.58528-17.2032-21.0944-25.668266-30.037333-46.08-63.624533-90.043733-94.685867-135.5776-56.661333-82.875733-88.610133-164.727467-95.163733-271.291734-2.2528-36.864 12.765867-71.543467 14.677333-108.1344 0.136533-2.362027 1.024-4.369067 2.6624-6.007466 4.5056-4.594347 4.48512-6.621867-0.068267-6.075734l34.679467-11.332266a2.935467 2.935467 0 0 1 3.822933 3.208533c-3.863893 26.624-6.59456 53.384533-8.192 80.2816-6.417067 110.523733 34.133333 211.3536 100.898134 301.738667a2433.47456 2433.47456 0 0 0 142.404266 175.445333 2.819413 2.819413 0 0 1 0.498347 3.140267 2.99008 2.99008 0 0 1-2.751147 1.706666l-77.687466-1.4336z" fill="#CD4C3D" p-id="7032"></path><path d="M669.361493 141.632853c4.553387-0.546133 4.573867 1.481387 0.068267 6.075734-1.6384 1.6384-2.525867 3.64544-2.6624 6.007466-1.911467 36.590933-16.930133 71.2704-14.677333 108.1344 6.5536 106.564267 38.5024 188.416 95.163733 271.291734 31.061333 45.533867 64.648533 89.4976 94.685867 135.5776 5.50912 8.465067 12.540587 17.025707 21.0944 25.668266l-600.6784 0.6144a4.9152 4.9152 0 0 0-4.9152 4.7104v-5.3248c-34.065067 5.256533-67.037867-2.525867-105.130667 5.597867-7.918933-23.98208-11.741867-11.4688-8.6016-38.365867 1.979733-16.657067 13.9264-16.9984 18.0224-29.696 2.778453-8.690347 4.123307-17.360213 4.027733-26.0096a156.289707 156.289707 0 0 0 20.002134-48.7424c1.283413-5.5296 62.327467-78.902613 87.51104-114.169173C443.112107 205.114027 660.753067 143.54432 669.354667 141.632853z" fill="#FF5646" p-id="7033"></path><path d="M925.566293 757.94432c19.21024 25.217707 31.31392 49.861973 36.317867 73.9328 4.143787 20.206933 1.071787 39.7312-9.216 58.5728-10.513067 19.2512-25.326933 35.20512-44.4416 47.854933a5.95968 5.95968 0 0 0-2.798933 5.393067 2.49856 2.49856 0 0 1-1.024 2.2528c-2.423467 1.88416-4.450987 3.263147-4.9152 3.345067l-15.906134 1.501866c-233.649493-0.314027-467.3536-0.341333-701.098666-0.068266-46.557867 0.068267-69.481813-11.250347-102.058667-54.340267-21.640533-28.617387-21.640533-114.592427 40.93952-142.4384 15.74912-7.00416 283.818667-5.67296 804.201813 3.9936z" fill="#FEFEFE" p-id="7034"></path><path d="M883.582293 950.797653l15.906134-1.501866c0.464213-0.08192 2.491733-1.460907 4.9152-3.345067a2.49856 2.49856 0 0 0 1.024-2.2528 5.95968 5.95968 0 0 1 2.798933-5.393067c19.114667-12.649813 33.928533-28.603733 44.4416-47.854933 10.287787-18.8416 13.359787-38.365867 9.216-58.5728-5.003947-24.070827-17.107627-48.715093-36.317867-73.9328l66.901334-1.2288c2.286933-0.04096 4.491947 0.730453 6.212266 2.184533 40.891733 34.747733 57.344 96.733867 28.672 144.384-32.836267 54.4768-89.2928 49.425067-143.7696 47.5136z" fill="#CBCCCE" p-id="7035"></path></svg>
