<svg viewBox="0 0 1024 1024" version="1.1" xmlns="http://www.w3.org/2000/svg" p-id="1728"><path d="M208.979592 1024h606.040816c115.461224 0 208.979592-93.518367 208.979592-208.979592V208.979592C1024 93.518367 930.481633 0 815.020408 0H208.979592C93.518367 0 0 93.518367 0 208.979592v606.040816c0 115.461224 93.518367 208.979592 208.979592 208.979592z" fill="#393A3D" p-id="1729"></path><path d="M386.612245 708.127347c0 58.096327 61.54449 94.354286 110.968163 65.306122l332.8-196.127347c49.214694-29.048163 49.214694-101.564082 0-130.612244L497.580408 250.566531C448.156735 221.518367 386.612245 257.776327 386.612245 315.872653v392.254694z" fill="#00B3FE" p-id="1730"></path><path d="M292.571429 647.836735c23.092245 0 41.795918-18.703673 41.795918-41.795919V417.959184c0-23.092245-18.703673-41.795918-41.795918-41.795919s-41.795918 18.703673-41.795919 41.795919v188.081632c0 23.092245 18.703673 41.795918 41.795919 41.795919z" fill="#4851FF" p-id="1731"></path><path d="M188.081633 595.591837c17.345306 0 31.346939-14.001633 31.346938-31.346939V459.755102c0-17.345306-14.001633-31.346939-31.346938-31.346939s-31.346939 14.001633-31.346939 31.346939v104.489796c0 17.345306 14.001633 31.346939 31.346939 31.346939z" fill="#703BFE" p-id="1732"></path></svg>
