<svg viewBox="0 0 1024 1024" version="1.1" xmlns="http://www.w3.org/2000/svg" p-id="574"><path d="M64.201524 710.270772l465.939098 288.260059 414.168088-294.021-454.436581-265.206613z" fill="#E8E8FF" p-id="575"></path><path d="M51.464519 726.014117l465.939098 288.269741a24.205634 24.205634 0 0 0 26.747226-0.852038l414.163247-294.021a24.220158 24.220158 0 0 0-1.805741-40.650943l-454.43658-265.201772a24.205634 24.205634 0 0 0-25.198066 0.493795l-425.670605 270.957872a24.200793 24.200793 0 0 0 0.261421 41.004345z m426.20797-270.64804l454.43174 265.201772a24.215317 24.215317 0 0 1-1.805741-40.646101l-414.168087 294.025841a24.224999 24.224999 0 0 1 26.747226-0.852038L76.938529 684.845174a24.205634 24.205634 0 0 1 0.261421 41.009186l425.670605-270.972396a24.205634 24.205634 0 0 1-25.198066 0.484113z" fill="#6E6E96" p-id="576"></path><path d="M64.201524 511.48442l465.939098 288.260059 414.168088-294.025841-454.436581-265.201772z" fill="#FFE278" opacity=".85" p-id="577"></path><path d="M51.46936 527.227765l465.939099 288.260059a24.200793 24.200793 0 0 0 26.742384-0.847197l414.172929-294.021001a24.210476 24.210476 0 0 0-1.815423-40.646101l-454.43658-265.201772a24.195952 24.195952 0 0 0-25.198066 0.488954L51.203098 486.22342a24.191111 24.191111 0 0 0 0.266262 41.004345zM477.672489 256.579725l454.43174 265.201772a24.22984 24.22984 0 0 1-11.981789-19.829256 24.254046 24.254046 0 0 1 10.176048-20.821687L516.130401 775.161237a24.224999 24.224999 0 0 1 26.747226-0.847197L76.933688 486.058822a24.200793 24.200793 0 0 1 0.266262 41.004344L502.870555 256.095612a24.205634 24.205634 0 0 1-25.198066 0.484113z" fill="#6E6E96" p-id="578"></path><path d="M75.704041 309.70141l465.939099 288.26006 414.168087-294.030683L501.379487 38.729015z" fill="#00CCC6" opacity=".85" p-id="579"></path><path d="M62.971878 325.444755l465.939098 288.260059a24.205634 24.205634 0 0 0 26.747226-0.852038l414.163246-294.025842a24.215317 24.215317 0 0 0-1.80574-40.650942L513.579127 12.983902a24.195952 24.195952 0 0 0-25.198065 0.488954L62.705616 284.44041a24.205634 24.205634 0 0 0 0.266262 41.004345z m426.20797-270.64804l454.431739 265.196931a24.220158 24.220158 0 0 1-1.815422-40.650942l-414.158405 294.040364a24.205634 24.205634 0 0 1 26.742385-0.847197L88.436205 284.275812a24.210476 24.210476 0 0 1 0.266262 41.004345L514.377913 54.307761a24.215317 24.215317 0 0 1-25.198065 0.488954z" fill="#6E6E96" p-id="580"></path><path d="M192.050844 667.262201L526.529142 877.502659l293.948383-207.553633-66.41542-34.502711-211.184478 138.872566L243.323219 616.081807z" fill="#6E6E96" opacity=".15" p-id="581"></path><path d="M189.606075 455.50647l341.357539 217.1197L846.043516 456.32462l-66.526766-46.774968-232.204651 159.883057L247.757691 411.205318z" fill="#6E6E96" opacity=".15" p-id="582"></path></svg>
