<svg viewBox="0 0 1067 1024" version="1.1" xmlns="http://www.w3.org/2000/svg" p-id="688"><path d="M733.372819 88.775574h73.941609a6.542159 6.542159 0 0 0 2.130006-4.260011L773.46256 0h-4.183939l-40.165812 84.515563a4.26001 4.26001 0 0 0 4.26001 4.260011z m-80.331624 23.201842L566.395626 76.071614l-4.183939 4.260011 33.775797 86.569497c0 2.130005 2.130005 4.26001 4.26001 2.130005l52.793701-52.7937c2.130005 0 2.130005-2.130005 0-4.260011z m167.357551 38.035807a197.786197 197.786197 0 0 0-61.313721-10.573954 156.327167 156.327167 0 0 0-129.245673 99.349528 184.24545 184.24545 0 0 1 73.941609-14.833965 162.336825 162.336825 0 0 1 44.349751 6.390016l73.941609-69.75767a8.443949 8.443949 0 0 0-2.053933-10.573955z" fill="#F7DF4A" p-id="689"></path><path d="M1065.045058 287.398559l-101.479534-46.479757c-2.053934-2.130005-4.183939 0-4.183939 2.053934v88.775574a4.26001 4.26001 0 0 0 4.183939 4.26001l103.609539-44.425822s0.076072-4.183939-2.130005-4.183939z m-133.125325-103.533467h6.313944l42.295817-103.533467c2.053934-2.130005-2.130005-6.390016-4.26001-4.260011l-103.533467 40.165813c-2.130005 0-4.26001 4.183939-2.130006 4.183938z m0 211.250873l-16.887899 15.214322a59.411931 59.411931 0 0 1 2.053934 19.017904l38.035807 14.757893-19.017904-48.609761c0.076072-2.434292-1.977862-2.434292-4.107867-0.380358z m-50.739767-228.214843a6.390016 6.390016 0 0 0-8.443949 0l-80.255553 78.201619A207.066934 207.066934 0 0 1 890.080345 333.878315a160.967536 160.967536 0 0 1 15.214323 33.775797 135.71176 135.71176 0 0 0 22.821484-63.367655 169.031127 169.031127 0 0 0-46.479757-137.385335z" fill="#F7B531" p-id="690"></path><path d="M177.593605 712.106381h703.662432a118.367432 118.367432 0 0 0 119.052077-117.606715 130.386747 130.386747 0 0 0-0.684645-13.388604 120.497437 120.497437 0 0 0-122.55137-105.663473h-15.214323a156.403239 156.403239 0 0 0-16.887899-116.237426 169.335413 169.335413 0 0 0-96.839165-78.20162 162.260753 162.260753 0 0 0-44.349751-6.313944 213.00052 213.00052 0 0 0-63.443726 12.70396L173.409666 701.532427c-4.26001 2.130005-2.130005 10.573954 4.183939 10.573954z" fill="#A1C6E6" p-id="691"></path><path d="M384.660539 164.847188a198.622985 198.622985 0 0 0-196.492979 181.735087v35.905802H152.185686l-35.905802 4.183938H114.149879a150.089295 150.089295 0 0 0-114.107422 129.321745 137.461407 137.461407 0 0 0 97.295595 134.874972h4.183939l10.573954-4.260011L543.193783 266.25065a10.497883 10.497883 0 0 0 4.031796-14.377535 9.052522 9.052522 0 0 0-1.977862-2.510363 187.972959 187.972959 0 0 0-160.587178-84.515564z" fill="#C3D6E6" p-id="692"></path><path d="M498.767961 864.24961h40.165812v159.75039h-40.165812z m266.25065-16.887898h40.165812v81.168412h-40.165812z" fill="#A1C6E6" p-id="693"></path><path d="M312.848935 779.734047h40.165813v159.75039h-40.165813z m-156.403239 0h40.165813v76.680187h-40.165813z" fill="#C3D6E6" p-id="694"></path><path d="M653.041195 809.325904h40.165812v159.75039h-40.165812z" fill="#A1C6E6" p-id="695"></path></svg>
