<svg viewBox="0 0 1094 1024" version="1.1" xmlns="http://www.w3.org/2000/svg" p-id="797"><path d="M991.49688 381.019479v302.229865s26.160631 129.191888-101.492648 129.191888c-78.447701 0-75.605548-90.730931-73.831873-152.258205V314.119895c0-131.602376-113.81007-121.601416-138.414995-124.571786h-83.067803l-9.770169 72.186416h83.063529c24.604926-0.230791 83.054981-14.39027 83.054981 69.207498v355.286239s-7.154533 189.180552 137.431995 189.180552c178.525683 0 162.895978-157.651885 163.032743-145.338737V419.377862" fill="#BCBCCC" p-id="798"></path><path d="M888.465623 892.504472c-46.842103 0-84.174746-15.168123-110.967916-45.085524-51.851131-57.902994-44.658133-150.728143-43.559737-162.062564V330.942023c0-21.762773-4.269641-36.806952-12.6978-44.717968-10.535199-9.898386-28.438627-8.782894-42.828898-7.868277a202.9682 202.9682 0 0 1-10.265942 0.474405H565.353412l14.398818-106.377732 100.052339 0.123943c1.961727 0.235065 5.312476 0.397474 9.197464 0.581253 35.682912 1.69247 144.26171 6.846811 144.26171 140.962248l-0.021369 347.084598c-1.175326 40.815884-2.790866 96.714412 20.878072 121.07145 8.539281 8.795716 20.27545 13.069631 35.883786 13.069631 26.639309 0 46.474546-7.581924 60.629751-23.177439 28.874566-31.819294 23.908278-86.670712 23.852717-87.222047l-0.085478-1.69247V381.019479h34.191316v301.464834c0.743661 8.868373 4.517528 71.532507-32.490298 112.493704-20.719938 22.929551-49.68853 34.558873-86.102282 34.558873-24.976756 0-45.303494-7.885372-60.407507-23.4296-33.738281-34.725555-31.883402-98.971038-30.532846-145.885798l0.008548-0.282078V314.119895c0-89.213692-53.68464-104.056997-111.694482-106.809398-4.196984-0.200874-7.62039-0.363283-10.56939-0.66673h-67.185937l-5.141519 37.9951h63.493274c2.312188-0.02137 5.167163-0.213696 8.282847-0.410296 17.59998-1.10267 47.064347-2.957549 68.382632 17.070015 15.582692 14.633883 23.480886 38.063483 23.480886 69.643437v356.230774l-0.102574 0.935987c-0.089752 0.850509-8.89829 87.670808 35.033277 136.602856 20.023289 22.297012 48.752543 33.601516 85.405634 33.601516 51.359631 0 90.047105-13.796196 115.002492-40.999662 33.725459-36.768487 31.191028-85.243225 31.152563-85.717629 0.649635 7.564829 7.91529 15.29634 17.741019 14.864674 9.727429-0.470131 16.20241-8.817086 16.228053-16.390462l-34.191316 0.183778V419.377862h34.191316v308.277453c0.61117 4.564541 0.572705 11.372887-0.555609 22.083317-1.1796 11.210478-4.184162 28.434353-11.753264 46.859198-17.967537 43.752063-61.681134 95.906642-167.802432 95.906642z" fill="#6E6E96" p-id="799"></path><path d="M147.390216 999.989148V141.752923c0-75.361935 16.916154-92.278088 92.29091-92.278089h346.063132c63.044513 0 92.282362 16.916154 92.282362 92.278089v858.227677H147.390216v0.008548z" fill="#FF8F8F" p-id="800"></path><path d="M238.027121 144.082206h351.44399v240.518813h-351.44399z" fill="#B0E4FF" p-id="801"></path><path d="M600.091789 59.556999h-346.058858c-61.50163 0-84.072172 11.27886-90.30354 56.390028l-3.513158 2.055753v760.555909h29.613954V100.67633c14.082548-7.727237 34.635803-10.359969 64.211292-10.359969h346.058858c63.057335 0 92.278088 16.916154 92.278088 92.282363v-30.759363c-0.008548-75.361935-29.229301-92.282362-92.286636-92.282362z m-412.753294 42.563914c0.794948-0.500048 1.611266-0.974453 2.448953-1.436035l-2.448953 1.436035z" fill="#FFFFFF" opacity=".28" p-id="802"></path><path d="M1051.87447 368.261844v114.942657h-62.07006v-52.872596l-10.556569 10.560842-51.021991-51.021991c-30.635419-30.626871-0.008548-68.164663-0.008548-68.164663l5.880906-5.872358-41.542449-42.055319c-7.885372-7.99222-7.855455-21.023385 0.081205-28.964319l4.17134-4.158519c7.932385-7.940933 20.929359-7.940933 28.87884 0l126.187326 127.606266z" fill="#FF8F8F" p-id="803"></path><path d="M1051.87447 500.300159h-62.07006a17.095658 17.095658 0 0 1-17.095658-17.095658v-26.515366a17.121302 17.121302 0 0 1-5.547541-3.705484L916.139219 401.96166c-29.656693-29.648145-18.125671-65.976418-5.325297-85.375716l-30.41745-30.793554c-14.48857-14.68517-14.415914-38.4866 0.149587-53.060649l4.184163-4.179888c7.047685-7.051959 16.471667-10.949769 26.506817-10.949769s19.459133 3.893536 26.528188 10.958316l126.264256 127.678923a17.082836 17.082836 0 0 1 4.940646 12.018247v114.942657a17.095658 17.095658 0 0 1-17.095659 17.099932z m-44.974402-34.191316h27.878744v-90.820683l-121.250954-122.61006a3.235353 3.235353 0 0 0-2.290819-0.880426 3.269545 3.269545 0 0 0-2.342105 0.944535l-4.184162 4.179888c-1.269353 1.269353-1.273627 3.547349 0.017096 4.855167l41.533901 42.046771a17.095658 17.095658 0 0 1-0.085478 24.113426l-5.137246 5.128697c-3.333653 4.419228-18.629993 26.818814-0.726565 44.722241l39.029387 39.029388a17.10848 17.10848 0 0 1 27.562475 13.522665v35.768391zM695.118004 1017.076258H130.294558V141.752923c0-84.841477 24.536543-109.373746 109.386568-109.373747h346.063132c27.908662 0 59.381768 2.645553 81.20865 22.258547 19.21552 17.266615 28.169371 44.948759 28.16937 87.1152v875.323335zM239.676852 66.570492c-66.057623 0-75.195252 9.133355-75.195252 75.182431v841.140567l496.440814-0.008548V141.752923c0-63.822365-19.698472-75.18243-75.186704-75.182431h-346.058858z" fill="#6E6E96" p-id="804"></path><path d="M118.716523 900.778771h595.232349v106.125571H118.716523z" fill="#BEBEC9" p-id="805"></path><path d="M989.41121 483.204501h62.065786v63.664231H989.41121z" fill="#FFFFFF" p-id="806"></path><path d="M1051.48127 563.96439H989.41121a17.095658 17.095658 0 0 1-17.095658-17.095658v-63.664231a17.095658 17.095658 0 0 1 17.095658-17.095658h62.065786a17.095658 17.095658 0 0 1 17.095658 17.095658v63.664231c0.004274 9.441077-7.650307 17.095658-17.091384 17.095658z m-44.974402-34.191316h27.87447v-29.472915H1006.506868v29.472915z" fill="#6E6E96" p-id="807"></path><path d="M520.143944 453.201621h70.754655v169.191454h-70.754655z" fill="#E9F2F5" p-id="808"></path><path d="M590.898599 639.488733h-70.754655a17.095658 17.095658 0 0 1-17.095658-17.095658v-169.191454a17.095658 17.095658 0 0 1 17.095658-17.095658h70.754655a17.095658 17.095658 0 0 1 17.095658 17.095658v169.191454a17.095658 17.095658 0 0 1-17.095658 17.095658z m-53.658997-34.191316h36.563339v-135.000138h-36.563339v135.000138z" fill="#6E6E96" p-id="809"></path><path d="M520.143944 453.201621h70.754655v53.842775h-70.754655z" fill="#6E6E96" opacity=".25" p-id="810"></path><path d="M238.027121 144.082206h351.44399v25.365683h-351.44399z" fill="#6E6E96" opacity=".15" p-id="811"></path><path d="M238.027121 328.621287l159.18622-159.181946h74.481508L256.541719 384.601019h-18.514598z" fill="#FFFFFF" opacity=".53" p-id="812"></path><path d="M317.068896 384.601019l215.153131-215.161678h29.447271L346.516167 384.601019z" fill="#FFFFFF" opacity=".25" p-id="813"></path><path d="M589.471111 391.011891h-351.44399a6.410872 6.410872 0 0 1-6.410872-6.410872V144.082206a6.410872 6.410872 0 0 1 6.410872-6.410872h351.44399a6.410872 6.410872 0 0 1 6.410872 6.410872v240.518813a6.410872 6.410872 0 0 1-6.410872 6.410872z m-345.033118-12.821744h338.622247V150.493078h-338.622247v227.697069z" fill="#6E6E96" p-id="814"></path><path d="M147.390216 844.363099h530.63213v30.763637H147.390216z" fill="#6E6E96" opacity=".15" p-id="815"></path><path d="M118.716523 963.318962h595.232349v30.763636H118.716523z" fill="#6E6E96" opacity=".25" p-id="816"></path><path d="M118.716523 909.3266h595.232349v30.755089H118.716523z" fill="#FFFFFF" opacity=".15" p-id="817"></path><path d="M713.944598 1024H118.716523a17.095658 17.095658 0 0 1-17.095658-17.095658v-106.125571a17.095658 17.095658 0 0 1 17.095658-17.095658h595.232349a17.095658 17.095658 0 0 1 17.095658 17.095658v106.125571a17.104206 17.104206 0 0 1-17.099932 17.095658z m-578.132417-34.191316h561.041033v-71.934255H135.812181v71.934255z" fill="#6E6E96" p-id="818"></path><path d="M634.770331 65.070348v779.301299h34.704186V116.109436s-11.654965-44.337589-34.704186-51.039088z" fill="#6E6E96" opacity=".15" p-id="819"></path><path d="M678.022346 234.043833h31.30215s62.28803 6.919468 62.28803 92.282362V734.685905s13.838935 115.331583 103.826206 115.331583c89.974448 0 149.950291-46.132633 149.95029-119.947411v-204.566644h26.087974v217.131953s-9.282942 132.773428-163.032743 132.773428c-153.762622 0-138.27823-149.061316-138.27823-161.583886s0.850509-382.878632 0.850509-382.878632 5.735593-69.882776-69.895598-69.882776l-3.098588-27.019687z" fill="#6E6E96" opacity=".25" p-id="820"></path><path d="M678.022346 190.360152h22.848347v67.519302h-22.848347z" fill="#6E6E96" opacity=".25" p-id="821"></path><path d="M1015.12308 483.204501V397.833059h-19.997646l-8.458077 8.466624-40.764597-40.756049s-4.350845-35.644447 13.856031-53.838501l-67.01498-67.002158s-9.966769 19.416394 4.658567 33.994717c14.646705 14.574048 30.814924 43.004128 30.814924 43.004127s-25.117796 37.683104-8.449529 57.031116c16.651171 19.352285 53.825679 62.172634 53.825679 62.172634l20.758403-20.766951v56.137868l20.771225 6.928015z" fill="#6E6E96" opacity=".15" p-id="822"></path><path d="M589.471111 401.696677h-351.44399a17.095658 17.095658 0 0 1-17.095658-17.095658V144.082206a17.095658 17.095658 0 0 1 17.095658-17.095658h351.44399a17.095658 17.095658 0 0 1 17.095658 17.095658v240.518813a17.095658 17.095658 0 0 1-17.095658 17.095658z m-334.348332-34.191316h317.252674V161.177864h-317.252674v206.327497z" fill="#6E6E96" p-id="823"></path></svg>
