<svg viewBox="0 0 1024 1024" version="1.1" xmlns="http://www.w3.org/2000/svg" p-id="553"><path d="M546.247448 507.442584m-432.519015 0a432.519015 432.519015 0 1 0 865.03803 0 432.519015 432.519015 0 1 0-865.03803 0Z" fill="#70C4FF" p-id="554"></path><path d="M540.512952 89.268434s-43.271735 244.414592 50.924916 262.234648c94.200963 17.824368 134.941759-7.635935 183.314178 40.736484 48.376731 48.372419 157.064843 31.621653 160.389127-17.824367 0 0.004312-66.192475-246.954155-394.628221-285.146765zM272.798194 831.782262s99.900967 15.202883 191.657224-23.080271c97.180315-40.538148 185.215616-137.731398 135.72648-253.344023-77.833934-181.787853-153.093812-85.60353-126.680635-228.314885 26.408866-142.715667-56.564557-199.590663-114.439856-199.590663-57.875299 0.004312-310.443224 377.36868-86.263213 704.329842z" fill="#A3D9FF" opacity=".26" p-id="555"></path><path d="M251.817698 823.965237s86.681443 14.366423 166.287466-21.82558c84.318658-38.339206 160.699565-130.237747 117.764139-239.538114-67.533398-171.892613-132.837673-80.938323-109.921245-215.875771s-49.07953-188.720989-99.293024-188.720989S57.310473 514.811197 251.817698 823.965237z" fill="#A3D9FF" opacity=".26" p-id="556"></path><path d="M268.361505 176.031798C405.726412 197.107151 356.237276 314.448749 394.968842 451.645501c25.132617 89.005423 63.075151 76.001482 97.068211 142.01718 51.907973 68.63287-198.586048 297.87476-332.893994 106.368444C26.016506 371.323744 268.361505 176.031798 268.361505 176.031798z" fill="#9EE3C3" p-id="557"></path><path d="M265.093273 197.344292c75.354734 11.559538 81.960185 50.592919 89.725469 137.787449 3.272544 36.73096 6.976252 78.355644 19.402432 122.373295 16.220433 57.43551 38.205545 77.644221 59.47061 97.184626 13.693805 12.590023 26.62876 24.481558 39.175666 48.842389l0.849396 1.651363 1.121029 1.483208c4.221107 5.5879 3.216492 17.000842-2.694782 30.539428-21.282312 48.751844-94.66231 108.049988-165.925287 115.198706-52.084751 5.22141-95.62812-16.561054-129.427157-64.752383l2.332604 4.285782C53.852528 382.628895 272.543807 200.405565 281.917338 192.7955l-16.824065 4.548792zM141.491158 712.409876c54.076734 77.096642 121.765352 87.630006 169.029676 82.891502 90.204062-9.054468 174.639135-80.153603 201.138546-140.840099 12.598646-28.853572 11.736316-55.068414-2.42746-73.798228l1.974736 3.134571c-16.05659-31.177552-33.204029-46.940951-48.333614-60.837404-19.139421-17.591538-34.256072-31.479368-47.152221-77.157004-11.33102-40.141476-14.849328-79.636204-17.953718-114.482973C390.467477 249.325563 383.568835 171.896925 271.634049 154.723616l-9.395089-1.440091-7.398794 5.963014c-2.625796 2.117021-64.84724 52.903965-110.373969 146.052885-42.021356 85.974332-77.053525 225.645973-5.299019 402.811736l0.922693 2.27224 1.401287 2.026476z" fill="#6E6E96" p-id="558"></path><path d="M583.03446 76.497322s-67.757604 230.962239 81.14097 230.962239c151.308788 0 179.670832 136.968235 274.294338 17.513929-100.905582-243.082292-355.435308-248.476168-355.435308-248.476168z" fill="#9EE3C3" p-id="559"></path><path d="M562.347155 70.426517c-1.737596 5.924209-41.948058 145.901977 11.576785 217.376225 20.471722 27.348806 50.838684 41.215077 90.260114 41.215077 56.745646 0 94.153535 20.993431 127.159228 39.520598 47.691178 26.766733 97.003537 54.438913 164.032472-30.177249l7.868764-9.938357-4.859232-11.710445c-54.943376-132.35908-153.874221-196.516455-227.18092-227.030013-79.097248-32.91946-144.940479-34.674302-147.70856-34.734665l-16.496379-0.349244-4.652272 15.828073z m359.22525 241.163607c-44.203052 55.792771-61.880823 45.871661-109.136524 19.34638-35.747903-20.062115-80.244147-45.035201-148.264762-45.0352-25.430121 0-43.659784-7.821336-55.723785-23.908108-33.721427-44.974837-14.845016-144.780948-4.734194-179.442315l-21.140027 15.500387c9.796072 0.237141 241.875029 8.48533 335.981136 235.187658l3.018156-21.648802z" fill="#6E6E96" p-id="560"></path><path d="M767.655068 879.037963s-97.460572-155.827399 0-220.743625c97.469195-64.929161 211.111396-61.104726 211.111395-150.851754 0 246.320342-211.111396 371.595378-211.111395 371.595379z" fill="#9EE3C3" p-id="561"></path><path d="M785.932159 867.612086l0.012935 0.017247c-0.86233-1.379729-85.1853-138.873985-6.346751-191.394213 32.393438-21.571193 67.874019-35.588372 99.185232-47.954189 62.501701-24.684205 121.536834-47.997305 121.536835-120.838347h-43.116516c0 231.376158-198.551555 351.865261-200.556473 353.055277l29.284738 7.114225z m171.276047-360.169502c0 41.663489-30.599791 55.594435-94.252704 80.735676-33.307508 13.154849-71.051706 28.06454-107.243709 52.179607-113.603395 75.65655-10.761882 243.02624-6.333816 250.118907l11.175801 17.858861 18.104625-10.748947c9.054468-5.363695 221.666319-134.476101 221.666318-390.13548l-43.116515-0.008624z" fill="#6E6E96" p-id="562"></path><path d="M542.427325 71.103446c-238.869808 0-432.510392 193.644895-432.510392 432.519015 0 238.869808 193.644895 432.519015 432.510392 432.519015 238.869808 0 432.519015-193.649207 432.519015-432.519015 0-238.87412-193.649207-432.519015-432.519015-432.519015z m312.435207 481.667531c-15.267558 53.300637-107.411864 36.847374-144.00485 76.475764-29.780577 32.255465-0.96581 123.485701-40.947755 142.763095-46.013945 22.192071-97.61148 34.631185-152.119379 34.631185-60.367434 0 73.604204-110.119581 24.011588-136.989793-17.64759-9.558932-26.697746 43.116516-35.006299-73.871526-3.052649-42.965608-64.864486-62.881126-105.33796-161.234211-10.162563-24.701452-29.155388-198.642099-36.60161-188.712365-45.828544 61.100414-7.635935 252.598107 35.644424 352.606865 27.357429 63.213124-157.884057 173.082629-157.884057 74.858894 0-194.515849-87.798161-79.950955-75.410786-217.255499 17.393202-192.838616 156.961364-350.5847 350.589012-350.5847 81.675616 0 164.739583 23.494189 224.050662 70.499814 28.042982 22.217941 50.774009 49.700408 65.550038 82.434467 25.930273 57.444134-181.317883 20.527773-162.480277 29.953043 38.425439 19.229966 234.394314 90.704214 213.672516 85.073197-270.431098-73.487789-10.330717 62.493078 9.791761 82.619867 33.540338 33.570519-4.716947 66.015697-13.517028 96.731903z" fill="#6E6E96" opacity=".2" p-id="563"></path><path d="M546.247448 96.481827c226.60316 0 410.952134 184.357598 410.952134 410.960757s-184.357598 410.960757-410.952134 410.960758c-226.611783 0-410.960757-184.357598-410.960757-410.960758s184.357598-410.960757 410.960757-410.960757zM92.170175 507.442584c0 250.381918 203.699667 454.077273 454.077273 454.077273s454.06865-203.695355 454.06865-454.077273c0-250.377606-203.691043-454.077273-454.06865-454.077273S92.170175 257.064978 92.170175 507.442584z" fill="#6E6E96" p-id="564"></path><path d="M751.486375 136.593122c110.287735-60.190656 179.907973-66.882339 199.978711-46.811601 8.239566 8.239566 9.97285 23.252737 9.97285 34.394044 0 90.669721-108.998552 291.467646-317.337555 499.810961-276.269074 276.251827-494.628356 346.937043-534.209318 307.35177-22.092903-22.092903-12.158857-99.616398 59.837101-223.024489l-37.244046-21.7221c-76.876747 131.772695-96.223128 232.091892-53.076431 275.234277 79.355947 79.343012 346.35497-58.534982 595.184694-307.356081 197.361539-197.370162 329.962071-410.482164 329.96207-530.29865 0-28.055917-7.605753-49.885809-22.601677-64.881732-40.714926-40.719237-129.901438-26.70637-251.11921 39.455923l20.652811 37.847678z" fill="#6E6E96" p-id="565"></path></svg>
