<svg viewBox="0 0 1024 1024" version="1.1" xmlns="http://www.w3.org/2000/svg" p-id="700"><path d="M516.290821 0.918445c77.587472 39.307251 151.346922 108.024916 197.376554 181.504267a3.884042 3.884042 0 0 1 0.401475 3.286497 3.678636 3.678636 0 0 1-2.268803 2.315487c-111.572839 42.108243-287.848588 43.322006-398.954596-0.373466a3.678636 3.678636 0 0 1-2.156763-2.371506 3.884042 3.884042 0 0 1 0.466832-3.230477c50.791318-76.803195 116.399882-137.117884 196.816355-180.944069a9.065877 9.065877 0 0 1 8.309609-0.186733z" fill="#DC1D4A" p-id="701"></path><path d="M741.583926 228.172245a942.991228 942.991228 0 0 1-222.398747 32.491504c-75.906877 1.867328-157.975936-14.098325-237.430736-25.489025 0.429485-11.203967 5.004439-19.16812 13.724859-23.901796 2.399516-1.344476 5.52729-1.344476 8.402976 0 18.234456 8.402975 40.268925 14.910613 66.103406 19.513576 122.991549 21.913092 242.00569 15.657544 357.033085-18.766645 3.025071-0.914991 6.115499-0.224079 7.936143 1.773961 3.41721 3.678636 5.629993 8.468332 6.629014 14.378425z" fill="#C8D9E5" p-id="702"></path><path d="M741.583926 228.172245c32.86497 52.789358 51.286159 110.359076 55.272905 172.727826-35.292496 1.587229-69.931428 7.375945-105.223925 4.294854a119.443626 119.443626 0 0 0-34.1721 1.960694 5.844736 5.844736 0 0 0-3.603942 2.147427 3.585269 3.585269 0 0 0-0.597545 3.454557c3.36119 9.149906 46.309731-1.120397 57.607064 0.466832 30.063978 4.481587 60.277343 7.375945 90.658767 8.683074 5.349894 48.802613 6.657024 97.847979 3.921389 147.145435-11.857532 109.892244-33.705268 209.234086-101.582635 298.305624l-30.344078 20.727339-105.784123-10.270303c24.583371-112.842622 10.13959-216.94615-43.322006-312.310583-6.66636-11.885542-13.230018-11.820185-19.700309 0.186733-52.350536 97.726603-66.635594 201.895487-42.855174 312.497316l-108.118283 6.255548-30.53081-18.11308c-59.698471-90.005202-92.217986-189.74852-97.56788-299.239288-13.575473-116.521258 5.135152-227.160433 56.113202-331.917526 79.4548 11.3907 161.523859 27.356353 237.430736 25.489025a942.991228 942.991228 0 0 0 222.398747-32.491504z m-103.449963 176.462482c0-68.0641-55.179538-123.243638-123.243638-123.243639a123.243638 123.243638 0 0 0 0 246.487277c68.0641 0 123.243638-55.179538 123.243638-123.243638z m-301.573448-33.443842c0.037347-2.595586-1.680595-5.116478-4.761686-7.00248-3.081091-1.886001-7.301252-2.987725-11.708146-3.062417-4.406894-0.065356-8.645728 0.905654-11.792175 2.688952-3.146447 1.792635-4.939082 4.257508-4.976429 6.853093-0.046683 2.604922 1.671258 5.125815 4.761686 7.00248 3.081091 1.895338 7.291915 2.987725 11.698809 3.062417 4.406894 0.074693 8.655065-0.896317 11.801512-2.679615 3.137111-1.792635 4.929746-4.257508 4.967092-6.86243z m388.684292-0.093367c-0.018673-2.819665-1.783298-5.517954-4.892399-7.497321-3.118438-1.970031-7.329262-3.062418-11.708145-3.034408-4.38822 0.037347-8.589708 1.185753-11.670799 3.202468-3.081091 2.016714-4.799033 4.733676-4.78036 7.562677 0.018673 2.819665 1.773961 5.508617 4.892399 7.487985 3.109101 1.979368 7.319925 3.071754 11.708146 3.034408 4.38822-0.02801 8.571035-1.176417 11.661462-3.193131 3.081091-2.016714 4.808369-4.743013 4.789696-7.562678z m-388.983064 66.859674c-0.121376-2.847675-1.904674-5.508617-4.957756-7.385281-3.062418-1.895338-7.142529-2.857012-11.353353-2.679616-8.757768 0.373466-15.648207 5.471271-15.405455 11.3907 0.121376 2.847675 1.904674 5.508617 4.967092 7.394618 3.053081 1.886001 7.133192 2.847675 11.344017 2.670279 8.757768-0.364129 15.657544-5.461934 15.405455-11.3907z m369.282756 11.119938c14.75189 2.184774 20.167141-3.081091 16.245752-15.778921a7.469311 7.469311 0 0 0-6.162182-5.135151c-19.36419-2.670279-25.11556 2.679615-17.272783 16.059019 1.531209 2.595586 4.164141 4.38822 7.189213 4.855053z" fill="#E2F0FA" p-id="703"></path><path d="M796.856831 400.900071l4.668319 21.007438c-30.381424-1.307129-60.594789-4.201488-90.658767-8.683074-11.297334-1.587229-54.245874 8.683075-57.607064-0.466832a3.585269 3.585269 0 0 1 0.597545-3.454557 5.844736 5.844736 0 0 1 3.603942-2.147427 119.443626 119.443626 0 0 1 34.1721-1.960694c35.292496 3.081091 69.931428-2.707625 105.223925-4.294854z" fill="#C8D9E5" p-id="704"></path><path d="M567.735703 877.815604l-18.299813 71.612023-15.592187 42.014877c-11.017234 29.942602-23.715064 30.717543-38.093489 2.33416l-15.965653-44.722502-17.926347-70.865092c-23.78042-110.601829-9.495362-214.770713 42.855174-312.497316 6.470291-12.006918 13.033948-12.072275 19.700309-0.186733 53.461596 95.364433 67.905377 199.467961 43.322006 312.310583zM225.641241 567.09225c5.349894 109.490769 37.869409 209.234086 97.56788 299.239288-88.324607 18.11308-151.972477 67.261149-190.934273 147.425534-4.66832 9.616738-18.019714 15.312088-20.633973 0.466832-20.820706-118.668685-32.118039-268.708478-1.02703-386.256766 0.774941-2.838338 2.744972-5.228518 5.415251-6.535648l109.612145-54.33924zM805.446539 569.052944l101.115803 49.857654c2.763645 1.381823 4.855052 3.650626 5.882083 6.348914a223.677867 223.677867 0 0 1 12.511096 51.631615c13.379404 118.762051 9.205926 231.64202-12.511096 338.639906-2.987725 15.031989-15.031989 7.189212-19.513577-1.587228-37.53329-73.572717-104.476993-136.595032-189.066944-146.585237 67.877367-89.071539 89.725103-188.41338 101.582635-298.305624z" fill="#DC1D4A" p-id="705"></path><path d="M461.858214 878.18907l17.926347 70.865092-84.776684 3.081091c-20.232497-17.739615-33.985367-40.296935-41.267946-67.690635l108.118283-6.255548zM567.735703 877.815604l105.784123 10.270303c-5.66734 30.689533-19.42021 51.295496-41.267946 61.808552l-82.81599-0.466832 18.299813-71.612023z" fill="#C8D9E5" p-id="706"></path><path d="M632.25188 949.894459l-9.896837 37.906756c-0.700248 2.782318-3.482566 4.715003-6.72238 4.668319l-81.78896-1.02703 15.592187-42.014877 82.81599 0.466832zM479.784561 949.054162l15.965653 44.722502-81.882326-1.400496a7.058499 7.058499 0 0 1-6.442281-4.761686l-12.41773-35.479229 84.776684-3.081091zM638.133963 404.634727c0 68.0641-55.179538 123.243638-123.243638 123.243638a123.243638 123.243638 0 1 1 123.243638-123.243638z m-44.535769 0.093366a78.987968 78.987968 0 1 0-157.975936 0 78.987968 78.987968 0 0 0 157.975936 0z" fill="#4F687D" p-id="707"></path><path d="M303.32413 370.668416a16.619218 9.803471 0.9 1 0 33.234335 0.522086 16.619218 9.803471 0.9 1 0-33.234335-0.522086Z" fill="#3A4C5D" p-id="708"></path><path d="M692.193507 371.324929a10.643769 16.525851 89.6 1 0 33.050898-0.230742 10.643769 16.525851 89.6 1 0-33.050898 0.230742Z" fill="#476076" p-id="709"></path><path d="M304.549765 439.284756a10.737135 15.872287 87.6 1 0 31.716728-1.329325 10.737135 15.872287 87.6 1 0-31.716728 1.329325Z" fill="#476076" p-id="710"></path><path d="M698.355286 444.222077c-7.842777-13.379404-2.091407-18.729298 17.272783-16.059019a7.469311 7.469311 0 0 1 6.162182 5.135151c3.921388 12.697829-1.493862 17.963694-16.245752 15.778921a10.176937 10.176937 0 0 1-7.189213-4.855053z" fill="#476076" p-id="711"></path><path d="M514.610226 404.728093m-78.987968 0a78.987968 78.987968 0 1 0 157.975936 0 78.987968 78.987968 0 1 0-157.975936 0Z" fill="#C8D9E5" p-id="712"></path></svg>
