<?xml version="1.0" standalone="no"?><!DOCTYPE svg PUBLIC "-//W3C//DTD SVG 1.1//EN" "http://www.w3.org/Graphics/SVG/1.1/DTD/svg11.dtd"><svg t="1710987862646" class="icon" viewBox="0 0 1024 1024" version="1.1" xmlns="http://www.w3.org/2000/svg" p-id="3266" xmlns:xlink="http://www.w3.org/1999/xlink" width="200" height="200"><path d="M447.5 261.5L309.24 31.08A63.994 63.994 0 0 0 254.36 0H32.06C6.16 0-9 29.14 5.84 50.36l222.54 317.92c59.44-55.54 135.04-93.66 219.12-106.78zM991.94 0H769.64c-22.48 0-43.32 11.8-54.88 31.08l-138.26 230.42c84.08 13.12 159.68 51.24 219.12 106.76L1018.16 50.36C1033 29.14 1017.84 0 991.94 0zM512 320c-194.4 0-352 157.6-352 352s157.6 352 352 352 352-157.6 352-352-157.6-352-352-352z m185.04 314.52l-75.86 73.92 17.94 104.44c3.2 18.72-16.52 33.02-33.3 24.18L512 787.76l-93.8 49.3c-16.8 8.9-36.5-5.48-33.3-24.18l17.94-104.44-75.86-73.92c-13.64-13.28-6.1-36.46 12.7-39.18l104.86-15.28 46.86-95.04c4.22-8.56 12.38-12.78 20.56-12.78 8.22 0 16.44 4.28 20.66 12.78l46.86 95.04 104.86 15.28c18.8 2.72 26.34 25.9 12.7 39.18z" p-id="3267"></path></svg>
