<?xml version="1.0" standalone="no"?><!DOCTYPE svg PUBLIC "-//W3C//DTD SVG 1.1//EN" "http://www.w3.org/Graphics/SVG/1.1/DTD/svg11.dtd"><svg t="1710987931399" class="icon" viewBox="0 0 1024 1024" version="1.1" xmlns="http://www.w3.org/2000/svg" p-id="2706" xmlns:xlink="http://www.w3.org/1999/xlink" width="200" height="200"><path d="M905.41056 133.48864L528.76288 5.13024c-4.53632-1.55648-10.63936-2.32448-16.73216-2.32448-6.0928 0-12.19584 0.77824-16.73216 2.32448L118.64064 133.48864c-9.19552 3.10272-16.73216 13.74208-16.73216 23.5008v534.70208c0 9.74848 6.31808 22.60992 13.96736 28.71296l382.07488 297.728c3.88096 2.99008 8.86784 4.53632 13.96736 4.53632s10.19904-1.54624 13.96736-4.53632l382.07488-297.728c7.64928-5.9904 13.96736-18.8416 13.96736-28.71296V156.98944c0.22528-9.75872-7.3216-20.28544-16.51712-23.5008zM663.11168 314.05056l-97.20832 178.56512h50.65728c6.0928 0 11.07968 4.98688 11.07968 11.07968v23.6032c0 6.10304-4.98688 11.07968-11.07968 11.07968h-70.27712v32.9216h70.27712c6.0928 0 11.07968 4.98688 11.07968 11.07968v23.6032c0 6.10304-4.98688 11.07968-11.07968 11.07968h-70.27712v57.41568c0 6.0928-4.98688 11.07968-11.07968 11.07968h-45.7728c-6.0928 0-11.07968-4.98688-11.07968-11.07968V617.0624h-69.9392c-6.0928 0-11.07968-4.98688-11.07968-11.07968v-23.6032c0-6.0928 4.98688-11.07968 11.07968-11.07968h69.9392v-32.9216h-69.9392c-6.0928 0-11.07968-4.98688-11.07968-11.07968V503.7056c0-6.0928 4.98688-11.07968 11.07968-11.07968h50.10432L360.98048 314.0608c-2.88768-5.3248-1.00352-12.0832 4.43392-15.07328 1.65888-0.89088 3.44064-1.3312 5.3248-1.3312h50.98496c4.20864 0 7.97696 2.32448 9.87136 6.0928l80.80384 159.9488 81.14176-159.9488c1.88416-3.76832 5.76512-6.0928 9.87136-6.0928h49.87904c6.0928 0 11.07968 4.98688 11.07968 11.07968 0.07168 1.87392-0.37888 3.65568-1.25952 5.31456z m0 0" fill="#2C2C2C" p-id="2707"></path></svg>